<?xml version="1.0" encoding="UTF-8"?>
<svg id="download" width="50px" height="50px" viewBox="0 0 50 50" version="1.1" xmlns="http://www.w3.org/2000/svg" xmlns:xlink="http://www.w3.org/1999/xlink">
    <!-- Generator: Sketch 50.2 (55047) - http://www.bohemiancoding.com/sketch -->
    <title>Download</title>
    <desc>Created with Sketch.</desc>
    <defs></defs>
    <g id="Page-1" stroke="none" stroke-width="1" fill="none" fill-rule="evenodd">
        <g id="Download" transform="translate(1.000000, 1.000000)">
            <rect id="Rectangle-2" stroke="#FFFFFF" x="0" y="0" width="49" height="49" rx="8"></rect>
            <text fill="#FFFFFF" font-family="Circe-Regular, Circe" font-size="9" font-weight="normal">
                <tspan x="5" y="42">Download</tspan>
            </text>
            <path d="M25,25.2500763 C24.4824982,25.2500763 24.0625,24.8300781 24.0625,24.3125763 L24.0625,4.9375 C24.0625,4.41999818 24.4824982,4 25,4 C25.5175018,4 25.9375,4.41999818 25.9375,4.9375 L25.9375,24.3125763 C25.9375,24.8300781 25.5175018,25.2500763 25,25.2500763 Z" id="Shape" fill="#FFFFFF" fill-rule="nonzero"></path>
            <path d="M25,25.2500763 C24.759903,25.2500763 24.5200348,25.1587524 24.3373871,24.9749603 L19.3374634,19.9750366 C18.9712524,19.6088257 18.9712524,19.0151062 19.3374634,18.6486664 C19.7036743,18.2824554 20.2973938,18.2824554 20.6638336,18.6486664 L25.0011444,22.9862061 L29.3386841,18.6486664 C29.704895,18.2824554 30.2988434,18.2824554 30.6650543,18.6486664 C31.0312653,19.0151062 31.0312653,19.6088257 30.6650543,19.9750366 L25.6649017,24.9749603 C25.4799652,25.1587524 25.240097,25.2500763 25,25.2500763 Z" id="Shape" fill="#FFFFFF" fill-rule="nonzero"></path>
            <path d="M36.5624237,34 L13.4375763,34 C11.5412903,34 10,32.4587097 10,30.5624237 L10,24.9374237 C10,24.4199219 10.4199982,23.9999237 10.9375,23.9999237 C11.4550018,23.9999237 11.875,24.4199219 11.875,24.9374237 L11.875,30.5624237 C11.875,31.4237061 12.5762939,32.125 13.4375763,32.125 L36.5624237,32.125 C37.4237061,32.125 38.125,31.4237061 38.125,30.5624237 L38.125,24.9374237 C38.125,24.4199219 38.5449982,23.9999237 39.0625,23.9999237 C39.5800018,23.9999237 40,24.4199219 40,24.9374237 L40,30.5624237 C40,32.4587097 38.4587097,34 36.5624237,34 Z" id="Shape" fill="#FFFFFF" fill-rule="nonzero"></path>
        </g>
    </g>
</svg>