<?xml version="1.0" encoding="UTF-8"?>
<svg xmlns="http://www.w3.org/2000/svg" xmlns:xlink="http://www.w3.org/1999/xlink" width="60" height="60" viewBox="0 0 60 60" version="1.1" id="pottery"><!-- Generator: Sketch 51.3 (57544) - http://www.bohemiancoding.com/sketch --><title>029 - Pottery</title><desc>Created with Sketch.</desc><defs/><g id="Page-1" stroke="none" stroke-width="1" fill="none" fill-rule="evenodd"><g id="029---Pottery" transform="translate(0.000000, -1.000000)" fill-rule="nonzero"><path d="M31.24,30.28 C31.2392417,31.0413184 30.6903945,31.6914913 29.94,31.82 L27.25,32.29 L24.76,32.62 L24.75,32.62 L24.75,33.8 C24.750815,34.0843286 24.7103944,34.3672728 24.63,34.64 C24.3950032,35.5242385 23.7899771,36.2641198 22.97,36.67 C22.96,36.68 22.95,36.68 22.94,36.69 L22.92,36.76 C22.6656414,37.5481306 22.1984494,38.250649 21.57,38.79 C21.0443788,39.244456 20.4218721,39.5728112 19.75,39.75 L19.75,39.76 C18.8896315,40.7544966 17.9087485,41.6379632 16.83,42.39 C16.3098766,42.7627575 15.7653193,43.1001826 15.2,43.4 L14.47,43.79 C12.7614498,44.7010917 10.7972016,45.0143857 8.89,44.68 L8.88,44.68 C8.3723888,44.5914116 7.8737306,44.4575436 7.39,44.28 L4.8,43.32 C4.14063072,43.070932 3.45140237,42.9095517 2.75,42.84 C1.74760397,42.7218715 0.994082001,41.8693152 1,40.86 L1,27.69 C0.998067075,26.908858 1.45109153,26.1980783 2.16,25.87 L6.5,23.88 L9.91,22.49 C10.5072274,22.2475374 11.1454342,22.1219328 11.79,22.12 L23.05,22.12 C23.6889779,22.1216506 24.2524277,22.5391709 24.44,23.15 C24.4883244,23.2915842 24.5120011,23.4404094 24.51,23.59 C24.5063728,24.0404522 24.2962731,24.4643375 23.94,24.74 C22.5991963,25.7640393 20.9757027,26.3505919 19.29,26.42 L12.69,26.69 L19.19,27.38 L23.77,27.86 C25.85,28.08 27.93,28.37 29.99,28.75 C30.6421769,28.871034 31.1402472,29.4014991 31.22,30.06 C31.2311646,30.1328547 31.2378438,30.2063264 31.24,30.28 Z" id="Shape" fill="#DFC49C"/><path d="M28.24,30.28 C28.2392417,31.0413184 27.6903945,31.6914913 26.94,31.82 L24.25,32.29 L21.76,32.62 L21.75,32.62 L21.75,33.8 C21.750815,34.0843286 21.7103944,34.3672728 21.63,34.64 C21.3950032,35.5242385 20.7899771,36.2641198 19.97,36.67 C19.96,36.68 19.95,36.68 19.94,36.69 L19.92,36.76 C19.6656414,37.5481306 19.1984494,38.250649 18.57,38.79 C18.0443788,39.244456 17.4218721,39.5728112 16.75,39.75 L16.75,39.76 C15.8896315,40.7544966 14.9087485,41.6379632 13.83,42.39 C13.3098766,42.7627575 12.7653193,43.1001826 12.2,43.4 L11.47,43.79 C10.6622513,44.2207197 9.79151278,44.5210907 8.89,44.68 L8.88,44.68 C8.3723888,44.5914116 7.8737306,44.4575436 7.39,44.28 L4.8,43.32 C4.14063072,43.070932 3.45140237,42.9095517 2.75,42.84 C1.74760397,42.7218715 0.994082001,41.8693152 1,40.86 L1,27.69 C0.998067075,26.908858 1.45109153,26.1980783 2.16,25.87 L6.5,23.88 L9.91,22.49 C10.5072274,22.2475374 11.1454342,22.1219328 11.79,22.12 L20.05,22.12 C20.6889779,22.1216506 21.2524277,22.5391709 21.44,23.15 C21.4883244,23.2915842 21.5120011,23.4404094 21.51,23.59 C21.5063728,24.0404522 21.2962731,24.4643375 20.94,24.74 C19.5991963,25.7640393 17.9757027,26.3505919 16.29,26.42 L13,27 L16.19,27.38 L20.77,27.86 C22.85,28.08 24.93,28.37 26.99,28.75 C27.6421769,28.871034 28.1402472,29.4014991 28.22,30.06 C28.2311646,30.1328547 28.2378438,30.2063264 28.24,30.28 Z" id="Shape" fill="#FFE0B2"/><path d="M52.61,11.27 C52.6121629,12.0204501 52.1680466,12.7003804 51.48,13 C50.6359902,13.362826 49.703344,13.4672267 48.8,13.3 L48.28,13.2 L45.31,12.62 L40.66,11.61 C40.5219352,11.5786847 40.3770813,11.6093882 40.2635935,11.6940231 C40.1501058,11.7786581 40.0793633,11.9087383 40.07,12.05 C40.0505168,12.1740827 40.0830774,12.3007073 40.16,12.4 L41.67,14.34 C42.2887561,15.1342925 42.6232574,16.113149 42.62,17.12 C42.6218997,17.4228743 42.588338,17.7249299 42.52,18.02 L36.11,19.25 L36.22,18.73 L36.47,17.55 C36.5269815,17.2804081 36.4729085,16.9992284 36.32,16.77 L34.04,13.47 C33.6916161,12.9626236 33.20108,12.5694989 32.63,12.34 L31.14,11.73 C30.7622631,11.5760081 30.3579143,11.4978566 29.95,11.5 C29.5019395,11.5021836 29.0592309,11.5975362 28.65,11.78 C27.7812123,12.1679366 27.1306094,12.9230053 26.8753571,13.8395931 C26.6201048,14.7561809 26.7867817,15.7388465 27.33,16.52 L29.36,19.41 C30.7287014,21.360022 31.622492,23.6030597 31.97,25.96 C31.9866043,26.0590887 31.993304,26.1595841 31.99,26.26 C31.9873965,27.2014914 31.3371721,28.017378 30.42,28.23 C29.7998899,28.3697717 29.1502634,28.206437 28.67,27.79 C28.4864788,27.6408063 28.3336539,27.4574164 28.22,27.25 L26.66,24.5 C25.7630968,22.9239786 24.7040165,21.4459583 23.5,20.09 L19.48,15.58 C19.2451249,15.3222145 19.0587945,15.0240859 18.93,14.7 L16.42,8.41 C16.0495392,7.48985384 16.4117504,6.43731061 17.27,5.94 L22.43,2.94 C23.1181961,2.54286122 23.8688856,2.2655795 24.65,2.12 C25.7927474,1.89961538 26.9726728,1.97185572 28.08,2.33 L35.06,4.56 L43.56,7.12 L47.88,8.38 L51.31,9.49 C51.8296352,9.65290879 52.2506208,10.0372869 52.46,10.54 C52.5574981,10.771108 52.6084702,11.0191725 52.61,11.27 Z" id="Shape" fill="#DFC49C"/><path d="M50,11.27 C50.0021629,12.0204501 49.5580466,12.7003804 48.87,13 C48.6786901,13.0815331 48.4814542,13.1483927 48.28,13.2 C47.600974,13.3977234 46.8848018,13.4319901 46.19,13.3 L42.7,12.62 L40.07,12.05 L38.05,11.61 C37.8465051,11.5684227 37.6384964,11.6569792 37.5274195,11.8324807 C37.4163426,12.0079821 37.4253306,12.2338784 37.55,12.4 L39.06,14.34 C39.6787561,15.1342925 40.0132574,16.113149 40.01,17.12 C40.0118997,17.4228743 39.978338,17.7249299 39.91,18.02 L36.22,18.73 L36.47,17.55 C36.5269815,17.2804081 36.4729085,16.9992284 36.32,16.77 L34.04,13.47 C33.6916161,12.9626236 33.20108,12.5694989 32.63,12.34 L31.14,11.73 C30.7622631,11.5760081 30.3579143,11.4978566 29.95,11.5 C29.5019395,11.5021836 29.0592309,11.5975362 28.65,11.78 L28.53,11.73 C28.1522631,11.5760081 27.7479143,11.4978566 27.34,11.5 C26.1522607,11.5044607 25.0647029,12.1664157 24.5151479,13.21938 C23.9655928,14.2723443 24.0444601,15.5430709 24.72,16.52 L26.75,19.41 C28.1187014,21.360022 29.012492,23.6030597 29.36,25.96 C29.3766043,26.0590887 29.383304,26.1595841 29.38,26.26 C29.3797982,26.8495843 29.120109,27.4091962 28.67,27.79 C28.4864788,27.6408063 28.3336539,27.4574164 28.22,27.25 L26.66,24.5 C25.7630968,22.9239786 24.7040165,21.4459583 23.5,20.09 L19.48,15.58 C19.2451249,15.3222145 19.0587945,15.0240859 18.93,14.7 L16.42,8.41 C16.0495392,7.48985384 16.4117504,6.43731061 17.27,5.94 L22.43,2.94 C23.1181961,2.54286122 23.8688856,2.2655795 24.65,2.12 C24.9280833,2.16993455 25.2021463,2.24012141 25.47,2.33 L32.45,4.56 L40.95,7.12 L45.27,8.38 L48.7,9.49 C49.2196352,9.65290879 49.6406208,10.0372869 49.85,10.54 C49.9474981,10.771108 49.9984702,11.0191725 50,11.27 Z" id="Shape" fill="#FFE0B2"/><path d="M56.89,56 L43.62,58.62 L42.38,58.37 L30.74,56.02 C30.74,56.01 30.73,56.01 30.73,56 C25.12,44.83 40.88,32.41 35.27,21.24 C34.21,19.57 37.08,18.2 42.56,18.02 C42.96,18.01 43.38,18 43.81,18 C50.1,18 53.49,19.45 52.35,21.24 C46.74,32.41 62.5,44.83 56.89,56 Z" id="Shape" fill="#6D4122"/><path d="M54.39,56 L42.38,58.37 L30.74,56.02 C30.74,56.01 30.73,56.01 30.73,56 C25.12,44.83 40.88,32.41 35.27,21.24 C34.21,19.57 37.08,18.2 42.56,18.02 C48.04,18.2 50.91,19.57 49.85,21.24 C44.24,32.41 60,44.83 54.39,56 Z" id="Shape" fill="#91562D"/><path d="M59,58 C58.9918328,59.1011688 58.1011688,59.9918328 57,60 L31,60 C29.8967981,59.9967052 29.0032948,59.1032019 29,58 C29.0081672,56.8988312 29.8988312,56.0081672 31,56 L57,56 C58.1032019,56.0032948 58.9967052,56.8967981 59,58 Z" id="Shape" fill="#F57C00"/><path d="M56,58 C55.9918328,59.1011688 55.1011688,59.9918328 54,60 L31,60 C29.8967981,59.9967052 29.0032948,59.1032019 29,58 C29.0081672,56.8988312 29.8988312,56.0081672 31,56 L54,56 C55.1032019,56.0032948 55.9967052,56.8967981 56,58 Z" id="Shape" fill="#FF9801"/><path d="M12.874,38.5 C12.3217153,38.5218152 11.8563152,38.0917847 11.8345,37.5395 C11.8126848,36.9872153 12.2427153,36.5218152 12.795,36.5 L22.857,35.688 C23.1220953,35.6633972 23.3859138,35.746713 23.5887962,35.9191066 C23.7916786,36.0915002 23.9164879,36.3384099 23.935,36.604 C23.9562727,36.8684331 23.8716002,37.1304825 23.6996185,37.3324718 C23.5276369,37.5344612 23.2824418,37.6598354 23.018,37.681 L12.955,38.5 C12.928,38.5 12.9,38.5 12.874,38.5 Z" id="Shape" fill="#000000"/><path d="M11.812,42.375 C11.3001179,42.373042 10.8723626,41.9848479 10.820893,41.4755563 C10.7694234,40.9662647 11.11086,40.5003352 11.612,40.396 L19.55,38.771 C19.9060906,38.6834768 20.2815238,38.7978667 20.5283119,39.0690797 C20.7750999,39.3402926 20.8536558,39.7248237 20.7330145,40.0710988 C20.6123731,40.417374 20.3118865,40.6698476 19.95,40.729 L12.013,42.354 C11.9469643,42.3682963 11.8795647,42.375338 11.812,42.375 Z" id="Shape" fill="#000000"/><path d="M29.993,29.274 C28.8960142,29.2792088 27.8824114,28.689344 27.345,27.733 L25.79,24.993 C24.9272597,23.4785998 23.9094585,22.057968 22.753,20.754 L18.734,16.246 C18.4217733,15.9030748 18.1732144,15.5072092 18,15.077 L15.491,8.784 C14.9476848,7.40223525 15.4901006,5.83054414 16.77,5.078 L21.929,2.078 C23.8861655,0.942976976 26.2320907,0.688695829 28.387,1.378 L35.364,3.61 L48.16,7.42 L51.617,8.539 C52.4158543,8.78814472 53.0625926,9.37955303 53.382,10.153 C53.5302518,10.5068601 53.6077118,10.8863461 53.61,11.27 C53.6112219,12.417623 52.9323629,13.4569173 51.881,13.917 C50.8526082,14.3611458 49.7150547,14.488237 48.614,14.282 L45.114,13.602 L41.8,12.881 L42.457,13.726 C43.2120373,14.6961296 43.6213657,15.8906787 43.62,17.12 C43.6223256,17.5024491 43.5790196,17.8838102 43.491,18.256 C43.4132501,18.6101181 43.149923,18.8944168 42.8027884,18.9990217 C42.4556537,19.1036266 42.0790915,19.0121508 41.8186339,18.7599476 C41.5581763,18.5077444 41.4546249,18.1343224 41.548,17.784 C41.5975542,17.5661886 41.6217152,17.3433708 41.62,17.12 C41.6221561,16.3374997 41.3631446,15.5766532 40.884,14.958 L39.371,13.014 C38.9877092,12.5150213 38.9565655,11.8298642 39.2930072,11.2981701 C39.6294489,10.766476 40.2619614,10.5012627 40.877,10.634 L45.521,11.643 L48.991,12.318 C49.6991141,12.4460776 50.4292426,12.3636774 51.091,12.081 C51.4103502,11.937853 51.6153523,11.6199626 51.614,11.27 C51.6124707,11.1509064 51.587318,11.0333007 51.54,10.924 C51.4448706,10.6966849 51.2553585,10.5221439 51.021,10.446 L47.572,9.331 L43.279,8.08 L34.771,5.518 L27.777,3.28 C26.16094,2.76351115 24.4017602,2.95534241 22.935,3.808 L17.775,6.808 C17.3465616,7.05720774 17.1653168,7.58264751 17.349,8.043 L19.858,14.331 C19.9421567,14.5413191 20.0630379,14.7349999 20.215,14.903 L24.246,19.425 C25.4964036,20.8338836 26.5966722,22.3691656 27.529,24.006 L29.09,26.758 C29.3351396,27.165052 29.827898,27.3502561 30.2804597,27.2054364 C30.7330213,27.0606167 31.0267162,26.6237475 30.99,26.15 C30.6647554,23.9331706 29.827265,21.8226675 28.544,19.986 L26.514,17.096 C25.6235306,15.8140091 25.5174663,14.1439365 26.2386001,12.7595946 C26.959734,11.3752527 28.3890992,10.5050188 29.95,10.5 C30.4879019,10.4965251 31.0212761,10.5984437 31.52,10.8 L33.011,11.409 C33.7607117,11.7139873 34.4043443,12.2324402 34.862,12.9 L37.143,16.2 C37.450603,16.6603494 37.5588171,17.2255874 37.443,17.767 L37.087,19.455 C37.013046,19.8045844 36.7582087,20.0881597 36.4184827,20.1989059 C36.0787568,20.3096521 35.7057547,20.2307441 35.4399827,19.9919059 C35.1742107,19.7530677 35.056046,19.3905844 35.13,19.041 L35.489,17.341 L33.216,14.041 C32.9778486,13.6947812 32.6433753,13.4260204 32.254,13.268 L30.76,12.658 C30.5022255,12.5531085 30.2262917,12.5000966 29.948,12.502 C29.1317395,12.505592 28.3845655,12.9608292 28.0070735,13.6845653 C27.6295815,14.4083014 27.6838322,15.281552 28.148,15.953 L30.175,18.837 C31.6296091,20.9162941 32.5812899,23.3050812 32.955,25.815 C32.980128,25.9626037 32.9905124,26.1123407 32.986,26.262 C32.9847326,27.6652033 32.0168232,28.8825484 30.65,29.2 C30.4343166,29.2483304 30.2140303,29.273142 29.993,29.274 Z" id="Shape" fill="#000000"/><path d="M30.74,57.02 C30.3505141,57.0197958 29.996584,56.7934679 29.833,56.44 C26.825,50.44 29.497,44.231 32.081,38.225 C34.59,32.394 36.96,26.886 34.396,21.725 C33.9700683,21.0842018 33.9361444,20.2596197 34.308,19.586 C35.544,17.332 40.792,16.996 43.808,16.996 C46.824,16.996 52.075,17.332 53.308,19.584 C53.6804405,20.2581842 53.6465117,21.0836546 53.22,21.725 C50.656,26.882 53.025,32.39 55.534,38.225 C58.12,44.234 60.794,50.448 57.779,56.449 C57.5304719,56.9424664 56.9289664,57.1410281 56.4355,56.8925 C55.9420336,56.6439719 55.7434719,56.0424664 55.992,55.549 C58.592,50.38 56.213,44.859 53.692,39.013 C51.107,33.004 48.433,26.79 51.447,20.79 C51.463,20.759 51.479,20.729 51.497,20.701 C51.5268017,20.6604141 51.5479084,20.6141155 51.559,20.565 C51.468,20.152 49.441,19 43.81,19 C38.179,19 36.153,20.153 36.051,20.574 C36.0650036,20.619896 36.0859096,20.6633938 36.113,20.703 C36.131222,20.7317656 36.147912,20.7614737 36.163,20.792 C39.178,26.792 36.504,33.006 33.919,39.015 C31.403,44.861 29.028,50.382 31.624,55.551 L31.632,55.567 C31.7023479,55.7076889 31.7393054,55.8627051 31.74,56.02 C31.74,56.5722847 31.2922847,57.02 30.74,57.02 Z" id="Shape" fill="#000000"/><path d="M10.388,45.811 C9.24794282,45.8101147 8.11708451,45.6069665 7.048,45.211 L4.454,44.254 C3.87005586,44.0376197 3.26132453,43.8951792 2.642,43.83 C1.13144641,43.6635627 -0.00914161331,42.3826677 -2.10575779e-15,40.863 L-2.10575779e-15,27.691 C0.00262253592,26.5204363 0.683645239,25.4575573 1.746,24.966 L6.082,22.966 L9.533,21.559 C10.2500019,21.2679766 11.0161904,21.117251 11.79,21.115 L23.05,21.115 C24.1306978,21.1123351 25.0854972,21.818074 25.4,22.852 C25.4792366,23.0898617 25.5181068,23.339307 25.515,23.59 C25.509677,24.3480783 25.1583286,25.0621922 24.561,25.529 C23.9269794,26.0126833 23.2336852,26.4132682 22.498,26.721 L23.879,26.865 C26.026,27.094 28.143,27.396 30.179,27.765 C31.3711921,28.0185056 32.2299594,29.0623021 32.249,30.281 C32.2509002,31.5304416 31.3499126,32.5984353 30.118,32.807 L27.431,33.276 L25.75,33.5 L25.75,33.8 C25.7562921,35.2584272 25.0021555,36.6147362 23.76,37.379 C23.1582295,38.9261047 21.8912537,40.1196114 20.311,40.628 C18.9937845,42.1127568 17.4221413,43.3504978 15.67,44.283 L14.94,44.672 C13.5394156,45.4202125 11.9759101,45.8114324 10.388,45.811 Z M11.788,23.12 C11.270811,23.1230121 10.758963,23.2248386 10.28,23.42 L6.88,24.808 L2.582,26.783 C2.22742326,26.9461499 2.0001745,27.3006892 2,27.691 L2,40.863 C1.99068795,41.3611032 2.35948387,41.7856072 2.854,41.846 C3.6379851,41.9285509 4.40860535,42.1086086 5.148,42.382 L7.739,43.339 C9.79205518,44.0941546 12.0697886,43.9373581 14,42.908 L14.731,42.518 C16.3531547,41.6547349 17.7988534,40.4946482 18.993,39.098 C19.1258531,38.9434665 19.3027491,38.8332118 19.5,38.782 C20.6687583,38.4792732 21.6011882,37.5992948 21.971,36.45 C22.0608267,36.1715547 22.2512214,35.936592 22.505,35.791 C23.2691045,35.4228191 23.7535003,34.6481748 23.75,33.8 L23.75,33.694 L15.383,34.308 C15.0257344,34.334259 14.6815984,34.1679244 14.4802246,33.8716529 C14.2788508,33.5753813 14.2508328,33.1941835 14.4067246,32.8716529 C14.5626164,32.5491223 14.8787344,32.334259 15.236,32.308 L24.667,31.62 L24.678,31.62 L27.119,31.296 L29.769,30.832 C30.0407844,30.7874038 30.240204,30.5524188 30.24,30.277 C30.2390915,30.0181846 30.0636283,29.7925889 29.813,29.728 C27.83,29.37 25.761,29.074 23.664,28.851 L12.585,27.685 C12.0628257,27.6312252 11.6711155,27.1828468 11.6879554,26.6581811 C11.7047952,26.1335154 12.1244521,25.7111789 12.649,25.691 L19.249,25.421 C20.7301412,25.3612434 22.1567397,24.8457821 23.334,23.945 C23.442448,23.8586536 23.5069301,23.7285902 23.51,23.59 C23.5117736,23.5545791 23.5077197,23.5191073 23.498,23.485 C23.4483581,23.2760423 23.2646783,23.1263924 23.05,23.12 L11.788,23.12 Z" id="Shape" fill="#000000"/><path d="M57,61 L31,61 C29.3431458,61 28,59.6568542 28,58 C28,56.3431458 29.3431458,55 31,55 L57,55 C58.6568542,55 60,56.3431458 60,58 C60,59.6568542 58.6568542,61 57,61 Z M31,57 C30.4477153,57 30,57.4477153 30,58 C30,58.5522847 30.4477153,59 31,59 L57,59 C57.5522847,59 58,58.5522847 58,58 C58,57.4477153 57.5522847,57 57,57 L31,57 Z" id="Shape" fill="#000000"/><path d="M38,53 L23,53 C22.4477153,53 22,52.5522847 22,52 C22,51.4477153 22.4477153,51 23,51 L38,51 C38.5522847,51 39,51.4477153 39,52 C39,52.5522847 38.5522847,53 38,53 Z" id="Shape" fill="#000000"/><path d="M34,48 L23,48 C22.4477153,48 22,47.5522847 22,47 C22,46.4477153 22.4477153,46 23,46 L34,46 C34.5522847,46 35,46.4477153 35,47 C35,47.5522847 34.5522847,48 34,48 Z" id="Shape" fill="#000000"/><path d="M27,43 L23,43 C22.4477153,43 22,42.5522847 22,42 C22,41.4477153 22.4477153,41 23,41 L27,41 C27.5522847,41 28,41.4477153 28,42 C28,42.5522847 27.5522847,43 27,43 Z" id="Shape" fill="#000000"/><path d="M57,38 L47,38 C46.4477153,38 46,37.5522847 46,37 C46,36.4477153 46.4477153,36 47,36 L57,36 C57.5522847,36 58,36.4477153 58,37 C58,37.5522847 57.5522847,38 57,38 Z" id="Shape" fill="#000000"/><path d="M59,43 L49,43 C48.4477153,43 48,42.5522847 48,42 C48,41.4477153 48.4477153,41 49,41 L59,41 C59.5522847,41 60,41.4477153 60,42 C60,42.5522847 59.5522847,43 59,43 Z" id="Shape" fill="#000000"/></g></g></svg>
