<?xml version="1.0" encoding="utf-8"?>
<!-- Generator: Adobe Illustrator 19.1.0, SVG Export Plug-In . SVG Version: 6.00 Build 0)  -->
<!DOCTYPE svg PUBLIC "-//W3C//DTD SVG 1.1//EN" "http://www.w3.org/Graphics/SVG/1.1/DTD/svg11.dtd">
<svg version="1.1" id="Layer_1" xmlns="http://www.w3.org/2000/svg" xmlns:xlink="http://www.w3.org/1999/xlink" x="0px" y="0px"
	 width="16px" height="16px" viewBox="0 0 664 464" enable-background="new 0 0 664 464" xml:space="preserve">
<text transform="matrix(1 0 0 1 223.0315 437)" fill="#999999" font-family="'Helvetica'" font-size="13px">https://github.com/konsav/social-icons</text>
<circle id="Oval" fill="none" stroke="#000000" stroke-width="2" cx="62" cy="62" r="22"/>
<path id="facebook" d="M63.3,75h-4.9V63.5H56v-4h2.4v-2.4c0-3.2,1.4-5.2,5.3-5.2H67v4h-2c-1.5,0-1.6,0.6-1.6,1.6v2H67l-0.4,4h-3.3V75
	L63.3,75z"/>
<circle id="Oval_1_" fill="none" stroke="#000000" stroke-width="2" cx="122" cy="62" r="22"/>
<path id="Shape_1_" d="M130.5,56.8c0.9-0.6,1.6-1.5,1.9-2.5c-0.8,0.5-1.8,0.9-2.7,1.1c-0.8-0.9-1.9-1.4-3.1-1.4
	c-2.4,0-4.3,2-4.3,4.5c0,0.4,0,0.7,0.1,1c-3.6-0.2-6.8-2-8.9-4.7c-0.4,0.7-0.6,1.5-0.6,2.3c0,1.6,0.8,3,1.9,3.8
	c-0.7,0-1.4-0.2-2-0.6v0.1c0,2.2,1.5,4,3.5,4.5c-0.4,0.1-0.7,0.2-1.1,0.2c-0.3,0-0.5,0-0.8-0.1c0.5,1.8,2.1,3.1,4,3.2
	c-1.5,1.2-3.3,1.9-5.4,1.9c-0.3,0-0.7,0-1-0.1c1.9,1.3,4.2,2,6.6,2c7.9,0,12.3-6.9,12.3-12.9c0-0.2,0-0.4,0-0.6
	c0.8-0.6,1.6-1.4,2.1-2.4C132.2,56.5,131.4,56.7,130.5,56.8z"/>
<circle id="Oval_2_" fill="none" stroke="#000000" stroke-width="2" cx="182" cy="62" r="22"/>
<path id="Shape_2_" d="M178.2,73.9c-2.7,0-4.7-1.7-4.7-3.8c0-2,2.4-3.7,5.1-3.7c0.6,0,1.2,0.1,1.8,0.3c1.5,1,2.5,1.6,2.8,2.8
	c0.1,0.2,0.1,0.5,0.1,0.7C183.4,72.2,182,73.9,178.2,73.9 M178.9,61.7c-1.8-0.1-3.6-2.1-3.9-4.5c-0.3-2.4,0.9-4.3,2.7-4.2
	s3.6,2,3.9,4.4C182,59.8,180.7,61.7,178.9,61.7 M182.7,65.2c-0.6-0.5-1.9-1.6-1.9-2.2c0-0.8,0.2-1.1,1.4-2s2-2.2,2-3.7
	c0-1.8-0.8-3.5-2.3-4.1h2.2l1.6-1.2h-7.1c-3.2,0-6.2,2.4-6.2,5.2c0,2.9,2.2,5.2,5.4,5.2c0.2,0,0.4,0,0.7,0c-0.2,0.4-0.4,0.9-0.4,1.3
	c0,0.8,0.4,1.4,1,2c-0.4,0-0.8,0-1.2,0c-3.9,0-6.9,2.5-6.9,5.1s3.3,4.2,7.2,4.2c4.5,0,6.9-2.6,6.9-5.1
	C185.2,67.8,184.6,66.6,182.7,65.2 M193,61.9h-2.8v-2.8H188v2.8h-2.8v2.2h2.8v2.8h2.2v-2.8h2.8V61.9"/>
<circle id="Oval_3_" fill="none" stroke="#000000" stroke-width="2" cx="242" cy="62" r="22"/>
<path id="Shape_3_" d="M248.1,52h-12.3c-2.1,0-3.9,1.7-3.9,3.9v12.3c0,2.1,1.7,3.9,3.9,3.9h12.3c2.1,0,3.9-1.7,3.9-3.9V55.9
	C252,53.7,250.3,52,248.1,52L248.1,52z M249.2,54.3h0.4v3.4h-3.4v-3.4H249.2L249.2,54.3z M239.1,59.9c0.6-0.9,1.7-1.5,2.9-1.5
	s2.2,0.6,2.9,1.5c0.4,0.6,0.7,1.3,0.7,2.1c0,1.9-1.6,3.5-3.5,3.5s-3.5-1.6-3.5-3.5C238.5,61.2,238.7,60.5,239.1,59.9L239.1,59.9z
	 M250.1,68.1c0,1.1-0.9,1.9-1.9,1.9h-12.3c-1.1,0-1.9-0.9-1.9-1.9v-8.2h3c-0.3,0.6-0.4,1.3-0.4,2.1c0,3,2.5,5.5,5.5,5.5
	s5.5-2.5,5.5-5.5c0-0.7-0.1-1.4-0.4-2.1h3v8.2H250.1z"/>
<circle id="Oval_4_" fill="none" stroke="#000000" stroke-width="2" cx="302" cy="62" r="22"/>
<path id="Shape_4_" d="M302.7,69.9c0,0,0.5,0,0.7-0.3c0.2-0.2,0.2-0.6,0.2-0.6s0-2,0.9-2.3s2.1,1.9,3.3,2.7c0.9,0.6,1.7,0.5,1.7,0.5
	h3.3c0,0,1.7-0.1,0.9-1.5c-0.1-0.1-0.5-1-2.5-2.8c-2.1-1.9-1.8-1.6,0.7-4.9c1.5-2,2.1-3.2,2-3.8c-0.2-0.5-1.3-0.4-1.3-0.4h-3.8
	c0,0-0.3,0-0.5,0.1S308,57,308,57s-0.6,1.6-1.4,2.9c-1.7,2.8-2.3,2.9-2.6,2.8c-0.6-0.4-0.5-1.6-0.5-2.5c0-2.7,0.4-3.8-0.8-4.1
	c-0.4-0.1-0.7-0.2-1.8-0.2c-1.3,0-2.5,0-3.1,0.3c-0.4,0.2-0.8,0.7-0.6,0.7c0.2,0,0.8,0.1,1.1,0.5c0.4,0.5,0.4,1.7,0.4,1.7
	s0.2,3.2-0.5,3.6c-0.5,0.3-1.2-0.3-2.7-2.8c-0.8-1.3-1.3-2.7-1.3-2.7s-0.1-0.3-0.3-0.4c-0.2-0.2-0.6-0.2-0.6-0.2h-3.6
	c0,0-0.5,0-0.7,0.2s0,0.6,0,0.6s2.8,6.4,6,9.7c2.9,3,6.2,2.8,6.2,2.8L302.7,69.9L302.7,69.9z"/>
<circle id="Oval_5_" fill="none" stroke="#000000" stroke-width="2" cx="362" cy="62" r="22"/>
<path id="Shape_5_" d="M362,53.6c1.4,0,2.6,1.1,2.6,2.6c0,1.4-1.2,2.6-2.6,2.6s-2.6-1.2-2.6-2.6S360.6,53.6,362,53.6L362,53.6z
	 M362,62.4c3.4,0,6.2-2.8,6.2-6.2S365.4,50,362,50c-3.4,0-6.2,2.8-6.2,6.2C355.7,59.6,358.5,62.4,362,62.4z M364.5,67.4
	c1.3-0.3,2.5-0.8,3.6-1.5c0.9-0.5,1.1-1.7,0.6-2.5c-0.5-0.8-1.7-1.1-2.5-0.6c-2.6,1.6-5.8,1.6-8.4,0c-0.9-0.5-2-0.3-2.5,0.6
	c-0.5,0.8-0.3,2,0.6,2.5c1.1,0.7,2.4,1.2,3.6,1.5l-3.5,3.5c-0.7,0.7-0.7,1.9,0,2.6c0.4,0.4,0.8,0.5,1.3,0.5s0.9-0.2,1.3-0.5l3.4-3.4
	l3.4,3.4c0.7,0.7,1.9,0.7,2.6,0s0.7-1.9,0-2.6L364.5,67.4z"/>
<circle id="Oval_6_" fill="none" stroke="#000000" stroke-width="2" cx="422" cy="62" r="22"/>
<path id="Shape_6_" d="M412.5,58.4h3.9V72h-3.9V58.4z M414.4,56.7L414.4,56.7c-1.4,0-2.4-1-2.4-2.4c0-1.3,0.9-2.4,2.4-2.4
	c1.4,0,2.3,1,2.4,2.4C416.7,55.7,415.8,56.7,414.4,56.7L414.4,56.7z M432,72h-4.4v-7c0-1.8-0.7-3.1-2.2-3.1c-1.2,0-1.8,0.8-2.1,1.7
	c-0.1,0.3-0.1,0.7-0.1,1.1V72h-4.4c0,0,0.1-12.5,0-13.6h4.4v2.1c0.3-0.9,1.7-2.3,3.9-2.3c2.8,0,4.9,2,4.9,6.2L432,72L432,72z"/>
<circle id="Oval_7_" fill="none" stroke="#000000" stroke-width="2" cx="482" cy="62" r="22"/>
<path id="Shape_7_" d="M486,60c0.7-2,1.3-3.7,1.8-5c0.4-1.3,0.6-2.1,0.6-2.4c0-0.3-0.1-0.6-0.2-0.7c-0.1-0.2-0.3-0.3-0.6-0.3
	c-0.3,0-0.6,0.3-1,0.8c-0.3,0.5-0.7,1.3-1.1,2.5l-1.7,4.8L486,60L486,60z M483.8,64.4c-0.5,0-0.9-0.1-1.4-0.1
	c-0.4-0.1-0.8-0.2-1.2-0.3c0.2,0.4,0.3,0.7,0.5,1.1c0.1,0.4,0.3,0.7,0.3,1c0.3-0.3,0.6-0.6,0.8-0.9
	C483.2,64.9,483.5,64.6,483.8,64.4L483.8,64.4z M481.9,59.4l-1.8-5.1c-0.5-1.3-0.8-2.2-1.1-2.6c-0.3-0.4-0.5-0.6-0.8-0.6
	c-0.2,0-0.4,0.1-0.6,0.3c-0.1,0.2-0.2,0.4-0.2,0.7c0,0.5,0.2,1.4,0.6,2.6c0.4,1.3,1,2.9,1.8,4.9c0.1-0.1,0.2-0.2,0.3-0.3
	c0.1,0,0.3-0.1,0.5-0.1c0.1,0,0.2,0,0.4,0C481.1,59.3,481.5,59.4,481.9,59.4L481.9,59.4z M480.3,67.4c0.2,0,0.4-0.1,0.5-0.3
	c0.2-0.2,0.2-0.4,0.2-0.6s-0.2-0.7-0.5-1.5s-0.7-1.5-1.1-2.3c-0.3-0.5-0.7-1-1-1.2c-0.3-0.3-0.6-0.4-0.9-0.4c-0.2,0-0.5,0.1-0.8,0.4
	c-0.3,0.3-0.4,0.6-0.4,0.8c0,0.3,0.1,0.7,0.4,1.2s0.7,1.1,1.1,1.7c0.5,0.6,1,1.2,1.4,1.5C479.7,67.2,480,67.4,480.3,67.4L480.3,67.4
	z M475.2,67c0.2,0.2,0.4,0.5,0.7,0.8c0.7,1,1.4,1.5,2,1.5c0.2,0,0.4-0.1,0.6-0.2s0.3-0.3,0.3-0.4c0-0.2-0.1-0.4-0.3-0.8
	c-0.2-0.4-0.5-0.8-0.9-1.3c-0.4-0.6-0.8-1-1.1-1.2c-0.3-0.3-0.5-0.4-0.7-0.4c-0.4,0-0.8,0.2-1.1,0.6c-0.3,0.4-0.5,0.9-0.5,1.5
	c0,0.5,0.1,1,0.3,1.5c0.2,0.6,0.6,1.1,1,1.7c0.7,0.9,1.5,1.5,2.5,2s2.1,0.7,3.2,0.7c2.2,0,4-0.8,5.5-2.4s2.2-3.6,2.2-6
	c0-0.7-0.1-1.3-0.2-1.8c-0.1-0.4-0.3-0.8-0.6-0.9c-0.5-0.4-1.3-0.7-2.7-1c-1.3-0.3-2.7-0.4-4.1-0.4c-0.4,0-0.7,0.1-0.9,0.2
	c-0.2,0.1-0.3,0.4-0.3,0.7c0,0.7,0.4,1.3,1.3,1.6c0.8,0.3,2.2,0.5,4.1,0.5h0.7c0.2,0,0.3,0.1,0.4,0.2c0.1,0.1,0.2,0.3,0.2,0.5
	c-0.2,0.2-0.6,0.4-1.2,0.6s-1,0.4-1.4,0.7c-0.7,0.5-1.2,1.1-1.6,1.7c-0.4,0.7-0.6,1.3-0.6,1.9c0,0.4,0.1,0.8,0.3,1.3
	c0.2,0.5,0.3,0.8,0.3,0.9v0.1v0.1c-0.5,0-0.9-0.3-1.2-0.8c-0.3-0.5-0.4-1.2-0.4-2.1v-0.1c-0.1,0.1-0.2,0.1-0.3,0.2
	c-0.1,0-0.2,0-0.3,0c-0.1,0-0.2,0-0.3,0c-0.1,0-0.2,0-0.3-0.1c0,0.1,0.1,0.2,0.1,0.4c0,0.1,0,0.2,0,0.3c0,0.4-0.2,0.8-0.5,1
	c-0.3,0.3-0.7,0.4-1.2,0.4c-0.7,0-1.4-0.3-2.1-1s-1.1-1.3-1.1-2c0-0.1,0-0.2,0-0.3C475.1,67.1,475.2,67,475.2,67L475.2,67z
	 M487.3,60.3c1,0.2,1.7,0.6,2.1,1.3c0.4,0.6,0.6,1.7,0.6,3.1c0,2.8-0.8,5-2.5,6.8s-3.9,2.6-6.5,2.6c-1,0-2-0.2-3-0.6
	s-1.8-0.9-2.5-1.5c-0.8-0.7-1.4-1.5-1.8-2.3s-0.6-1.6-0.6-2.5s0.2-1.7,0.6-2.2s1.1-0.9,2-1.1c-0.2-0.4-0.3-0.7-0.4-1
	s-0.1-0.5-0.1-0.6c0-0.5,0.3-1,0.8-1.5s1-0.8,1.5-0.8c0.2,0,0.4,0,0.6,0.1s0.5,0.2,0.8,0.4c-0.9-2.4-1.5-4.2-1.9-5.5
	s-0.6-2.2-0.6-2.7c0-0.7,0.2-1.2,0.5-1.6c0.4-0.4,0.8-0.6,1.5-0.6c1.1,0,2.4,2.3,4,6.9c0.3,0.8,0.5,1.4,0.6,1.8
	c0.1-0.3,0.3-0.8,0.5-1.5c1.6-4.6,3-6.9,4.2-6.9c0.6,0,1,0.2,1.4,0.6c0.3,0.4,0.5,0.9,0.5,1.5c0,0.5-0.2,1.4-0.6,2.7
	C488.6,56.5,488,58.2,487.3,60.3L487.3,60.3z"/>
<circle id="Oval_8_" fill="none" stroke="#000000" stroke-width="2" cx="542" cy="62" r="22"/>
<path id="Shape_8_" d="M542.3,65.3c0.1-0.7,0.4-1.2,1.5-1.1c1.4,0,4,0.3,7-1.3l0,0v-8.6c0-1.5-0.5-2.1-1.8-2.1h-13.9
	c-1.4,0-1.8,0.5-1.8,2.1v8.6l0,0c3,1.6,5.5,1.3,6.9,1.3c0.6,0,1,0.1,1.2,0.4l0.1,0.1C541.8,64.9,542.1,65.1,542.3,65.3z M541.7,67.2
	c0,1.8,0,4.4,0,4.3c0.1,4.4-8.4,3-5.9-5.6c-2.3-1-3.8-2.2-4.6-3.2c-0.4-0.6,0-1.3,0.7-0.8c0.1,0.1,0.2,0.1,0.3,0.2v-8.9
	c0-1.2,0.9-2.2,2-2.2h15.7c1.1,0,2,1,2,2.2v8.9c0.1-0.1,0.2-0.1,0.3-0.2c0.7-0.5,1.1,0.2,0.7,0.8c-0.8,1-2.3,2.3-4.6,3.2
	c2.5,8.6-6,10-5.9,5.6c0,0.1,0-1.7,0-3.3c0.5,0,2.5,0.1,3.5-1.5c-0.3,0.3-0.8,0.5-1.3,0.7C543.1,67.7,542.7,67.4,541.7,67.2z
	 M541.7,60.5c0,1.4-1.2,2.6-2.7,2.6s-2.7-1.2-2.7-2.6c0-1.4,1.2-2.6,2.7-2.6S541.7,59.1,541.7,60.5z M542.6,60.5
	c0,1.4,1.2,2.6,2.7,2.6s2.7-1.2,2.7-2.6c0-1.4-1.2-2.6-2.7-2.6S542.6,59.1,542.6,60.5z"/>
<circle id="Oval_9_" fill="none" stroke="#000000" stroke-width="2" cx="602" cy="62" r="22"/>
<path id="Shape_9_" d="M602,51c-6.1,0-11,4.9-11,11s4.9,11,11,11s11-4.9,11-11S608.1,51,602,51L602,51z M608.7,63.7
	c-0.8,3.1-3.6,5.2-6.7,5.2c-3.2,0-5.9-2.1-6.7-5.2c-0.1-0.5,0.2-1.1,0.7-1.2c0.1,0,0.2,0,0.2,0c0.4,0,0.8,0.3,0.9,0.7
	c0.6,2.2,2.6,3.7,4.8,3.7c2.3,0,4.3-1.5,4.8-3.7c0.1-0.4,0.5-0.7,0.9-0.7c0.1,0,0.2,0,0.2,0c0.3,0.1,0.5,0.2,0.6,0.4
	C608.7,63.2,608.8,63.4,608.7,63.7L608.7,63.7L608.7,63.7z"/>
<circle id="Oval_10_" fill="none" stroke="#000000" stroke-width="2" cx="182" cy="122" r="22"/>
<path id="Shape_10_" d="M187.9,126.5c-2.7,3.7-5,5.5-6.9,5.5c-1.2,0-2.2-1.1-3-3.4c-0.5-2.1-1.1-4.1-1.6-6.2
	c-0.6-2.2-1.2-3.4-1.9-3.4c-0.1,0-0.7,0.3-1.6,1l-0.9-1.3c1-0.9,2-1.8,2.9-2.7c1.3-1.2,2.3-1.8,3-1.9c1.6-0.2,2.5,1,2.9,3.3
	c0.4,2.6,0.7,4.1,0.8,4.8c0.4,2.1,0.9,3.2,1.5,3.2c0.4,0,1-0.7,1.9-2.1c0.8-1.4,1.3-2.4,1.3-3.1c0.1-1.2-0.3-1.8-1.3-1.8
	c-0.5,0-1,0.1-1.5,0.3c1-3.3,2.9-5,5.6-4.9c2.1,0.1,3,1.4,2.9,4.2C191.9,120.2,190.5,123,187.9,126.5z"/>
<circle id="Oval_11_" fill="none" stroke="#000000" stroke-width="2" cx="62" cy="122" r="22"/>
<path id="Shape_11_" d="M55.9,128v-4.1h0.8h0.8v-0.6v-0.6h-2.2h-2.2v0.6v0.6h0.7h0.7v4c0,2.2,0,4,0,4.1c0,0,0.2,0,0.7,0h0.7V128z
	 M68.5,127.7c0-0.1,0-1,0.1-1.2c0.1-0.3,0.3-0.5,0.6-0.5c0.3,0,0.4,0.1,0.5,0.3c0.1,0.1,0.1,0.2,0.1,0.8v0.6h-0.7
	C68.6,127.8,68.5,127.8,68.5,127.7L68.5,127.7z M69.7,132.1c0.6-0.2,1.1-0.6,1.2-1.2c0-0.1,0.1-0.4,0.1-0.7v-0.5h-0.6h-0.6v0.4
	c0,0.5-0.1,0.6-0.2,0.8c-0.2,0.2-0.5,0.2-0.8,0s-0.3-0.5-0.3-1.5v-0.7h1.3h1.3v-1c0-1.2,0-1.3-0.2-1.8c-0.4-0.8-1.4-1.2-2.3-0.9
	c-0.6,0.2-1,0.7-1.2,1.3c-0.1,0.2-0.1,0.4-0.1,2.1c0,2.1,0,2.2,0.2,2.6C67.9,131.9,68.9,132.3,69.7,132.1L69.7,132.1z M64.7,130.9
	c0.1-0.1,0.1-0.1,0.2-0.2c0.1-0.2,0.1-0.3,0-2.1c0-1.9,0-2-0.1-2.1c-0.2-0.3-0.5-0.3-0.9-0.1l-0.1,0.1v2.1v2.1l0.1,0.1
	C64.2,131,64.5,131,64.7,130.9L64.7,130.9z M65.5,132.1c0.2-0.1,0.4-0.3,0.5-0.5c0.2-0.5,0.2-0.5,0.2-3c0-2.1,0-2.3-0.1-2.6
	c-0.2-0.7-0.5-1-1.1-1c-0.3,0-0.6,0.2-0.9,0.5c-0.1,0.1-0.3,0.2-0.3,0.2s0-0.7,0-1.5v-1.5h-0.6h-0.6v4.7v4.7h0.6h0.6v-0.3
	c0-0.2,0-0.3,0-0.3s0.2,0.1,0.3,0.2C64.6,132.1,65,132.3,65.5,132.1L65.5,132.1z M59.1,132.1c0.2-0.1,0.5-0.3,0.8-0.5
	c0.1-0.1,0.2-0.2,0.2-0.2s0,0.1,0,0.4v0.4h0.6h0.6v-3.5v-3.5h-0.6h-0.6v2.7v2.7l-0.3,0.3c-0.2,0.2-0.3,0.3-0.4,0.3
	c-0.2,0.1-0.3,0-0.4-0.1c-0.1-0.1-0.1-0.2-0.1-3v-2.8h-0.6h-0.6v3c0,3.3,0,3.4,0.2,3.7C58.1,132.2,58.6,132.3,59.1,132.1L59.1,132.1
	z M59.6,135c-0.8,0-1.7,0-2,0c-2.3-0.1-3.9-0.2-4.3-0.2c-0.5-0.1-1-0.4-1.3-0.8c-0.5-0.6-0.7-1.3-0.8-2.4c-0.3-2.5-0.3-5.5,0-7.9
	c0.1-1.1,0.5-1.8,1-2.4c0.3-0.3,0.6-0.5,1-0.6c0.9-0.2,7.6-0.4,11.6-0.3c2.4,0.1,4.9,0.2,5.6,0.2c0.9,0.1,1.5,0.6,1.9,1.4
	c0.3,0.7,0.4,1.2,0.6,2.7c0.1,1.2,0.1,2,0.1,3.4c0,1.7-0.1,3.2-0.3,4.1c-0.2,0.9-0.6,1.7-1.1,2.1c-0.4,0.3-0.8,0.5-1.5,0.5
	c-0.2,0-0.5,0-0.6,0c-0.4,0-2.5,0.1-3.6,0.1C64.2,135,61.2,135,59.6,135z M57.5,119.5c0,0,0-2.8,0-3.2c0-0.5,0-0.9-0.4-1.9
	c-0.1-0.3-0.3-1-0.5-1.4c-1-3.2-1-3-0.9-3c0.7,0,1.5,0,1.5,0s0.2,0.8,0.5,1.7c0.3,1,0.5,1.7,0.5,1.8c0,0,0.2-0.5,0.3-1.2
	c0.4-1.5,0.6-2.3,0.6-2.3s0.2,0,0.8,0h0.7v0.1c0,0.1-0.5,1.6-1,3.2c-0.1,0.2-0.2,0.6-0.3,1s-0.2,0.8-0.3,1l-0.1,0.3v1.9
	c0,1.8,0,1.9-0.1,1.9C58.8,119.6,57.5,119.5,57.5,119.5z M66.3,119.6c-0.3,0-0.5-0.2-0.7-0.4c-0.2-0.3-0.2-0.3-0.2-3.7v-3.1h0.7h0.7
	v2.9c0,3.1,0,3,0.2,3.1c0.2,0,0.4,0,0.6-0.3l0.2-0.2v-2.7v-2.7h0.7h0.7v3.5v3.5h-0.1c-0.1,0-1.1,0-1.2,0c0,0-0.1-0.1-0.1-0.3v-0.3
	l-0.2,0.2C67.2,119.5,66.7,119.7,66.3,119.6L66.3,119.6z M62.9,118.3c0.2-0.2,0.2-0.2,0.2-2.2c0-1.6,0-1.8,0-2
	c-0.1-0.3-0.2-0.4-0.4-0.5c-0.3-0.1-0.5,0.1-0.6,0.4c-0.1,0.2-0.1,3.8,0,4s0.2,0.4,0.3,0.4C62.6,118.4,62.8,118.3,62.9,118.3
	L62.9,118.3z M62.3,119.6c-0.6-0.1-1.2-0.4-1.4-0.9c-0.3-0.5-0.3-0.8-0.3-2.9c0-1.7,0-1.8,0.1-2c0.2-0.6,0.5-1,0.9-1.2
	c0.7-0.3,1.4-0.3,2,0.1c0.4,0.3,0.6,0.6,0.8,1.2c0.1,0.2,0.1,0.4,0.1,2.1c0,2.1,0,2.2-0.2,2.6s-0.7,0.8-1.1,0.9
	C62.9,119.6,62.5,119.6,62.3,119.6L62.3,119.6z"/>
<circle id="Oval_12_" fill="none" stroke="#000000" stroke-width="2" cx="122" cy="122" r="22"/>
<path id="Shape_12_" d="M132,125.6v-7.1c0,0,0-3.4-3.4-3.4h-13.1c0,0-3.4,0-3.4,3.4v7.1c0,0,0,3.4,3.4,3.4h13.1
	C128.6,129,132,129,132,125.6 M125.9,122l-6.5,3.8v-7.7L125.9,122"/>
<circle id="Oval_13_" fill="none" stroke="#000000" stroke-width="2" cx="242" cy="122" r="22"/>
<path id="Shape_13_" d="M238.7,136c0,0,0-4.5,0-5.5c0-0.9-0.2-1.5-2.1-3.2c-0.5-0.7-1.5-2.4-1.4-3.6c0.1-0.8,1.1-2,1.4-2.9
	c0-0.9-1.2-3.4-1.3-4c-0.4-1.6-1.3-5.1-1.3-5.3c0.1-2,1.7-1.7,2.1-0.8c0.3,0.8,0.8,2.5,1.2,3.9c0.3,1.1,1,2.4,1.4,3.3
	c0.2,0.5,0.4,0.4,0.6,0c0.2-0.4,0.6-1.2,1.6-1.2s1.3,1.1,1.3,1.5s0.5,0.3,0.6,0s0.4-1.3,1.4-1.2c1,0.1,1.2,0.9,1.3,1.5
	c0.2,0.7,0.6,0,0.6,0s0.4-0.8,0.7-1.6c0.3-0.8,0.5-2.2,1.1-4c0.6-2,2.1-1.1,2.1,0.3c-0.1,1-1.5,7.1-1.6,7.7s-0.7,4.8-0.9,5.6
	c-0.2,0.7-0.9,2-1.4,3.8v5.8h-7.4"/>
<circle id="Oval_14_" fill="none" stroke="#000000" stroke-width="2" cx="302" cy="122" r="22"/>
<path id="Shape_14_" d="M312,116.4h-0.8c-0.3,0-0.7,0.4-0.7,0.7v9.9c0,0.3,0.4,0.6,0.7,0.6h0.8v2.4h-7.2v-2.4h1.5v-10.4h-0.1
	l-3.5,12.8H300l-3.5-12.8h-0.1v10.4h1.5v2.4h-6v-2.4h0.8c0.3,0,0.7-0.4,0.7-0.6v-9.9c0-0.3-0.4-0.7-0.7-0.7H292V114h7.5l2.5,9.3h0.1
	l2.5-9.3h7.5v2.4"/>
<circle id="Oval_15_" fill="none" stroke="#000000" stroke-width="2" cx="362" cy="122" r="22"/>
<path id="Shape_15_" d="M371.7,116.7c0,0.4,0.1,0.7,0.1,1.1c0,1.1-0.2,2.4-0.8,3.9l-3.4,9.7c3.3-1.9,5.5-5.4,5.5-9.5
	C373,120.1,372.5,118.3,371.7,116.7L371.7,116.7z M362.2,123l-3.3,9.6c1,0.3,2,0.4,3.1,0.4c1.3,0,2.5-0.2,3.7-0.6
	c0,0-0.1-0.1-0.1-0.2L362.2,123L362.2,123z M369.4,121.4c0-1.4-0.5-2.3-0.9-3c-0.6-0.9-1.1-1.7-1.1-2.6c0-1,0.8-2,1.8-2h0.1
	c-2-1.8-4.6-2.9-7.4-2.9c-3.8,0-7.2,2-9.2,5c0.3,0,0.5,0,0.7,0c1.2,0,2.9-0.1,2.9-0.1c0.6,0,0.7,0.8,0.1,0.9c0,0-0.6,0.1-1.3,0.1
	l4,11.9l2.4-7.2l-1.7-4.7c-0.6,0-1.2-0.1-1.2-0.1c-0.6,0-0.5-0.9,0.1-0.9c0,0,1.8,0.1,2.9,0.1s2.9-0.1,2.9-0.1
	c0.6,0,0.7,0.8,0.1,0.9c0,0-0.6,0.1-1.3,0.1l4,11.8l1.1-3.7C369.1,123.6,369.4,122.4,369.4,121.4L369.4,121.4z M351,122
	c0,4.4,2.5,8.1,6.2,9.9l-5.2-14.4C351.3,118.9,351,120.4,351,122L351,122z"/>
<circle id="Oval_16_" fill="none" stroke="#000000" stroke-width="2" cx="422" cy="122" r="22"/>
<path id="Shape_16_" d="M422.5,111v5.3h5.1v3.3h-5.1v5.3c0,1.2,0.1,2,0.2,2.3s0.4,0.6,0.7,0.8c0.5,0.3,1,0.4,1.6,0.4
	c1.1,0,2.2-0.3,3.3-1v3.3c-0.9,0.4-1.8,0.7-2.5,0.9c-0.8,0.2-1.6,0.3-2.4,0.3c-1,0-1.9-0.1-2.6-0.4c-0.8-0.2-1.4-0.6-1.9-1
	s-0.9-0.9-1.1-1.4s-0.3-1.2-0.3-2.2v-7.3H415v-2.9c0.9-0.3,1.6-0.6,2.2-1.1s1.1-1.1,1.5-1.8c0.4-0.7,0.6-1.6,0.8-2.6h3"/>
<circle id="Oval_17_" fill="none" stroke="#000000" stroke-width="2" cx="482" cy="122" r="22"/>
<path id="Shape_17_" d="M472.4,118.3l-2.4-2.4c1.1-2.6,3.2-4.7,5.8-5.9l0,0l2.5,2.5c1.4-0.6,2.9-0.9,4.5-0.9c6.2,0,11.2,5,11.2,11.2
	c0,6.2-5,11.2-11.2,11.2s-11.2-5-11.2-11.2C471.5,121.2,471.9,119.7,472.4,118.3L472.4,118.3l9.1,9.1c1.1-2.6,3.2-4.7,5.8-5.9l0,0
	l-9.1-9.1l0,0C475.6,113.6,473.5,115.6,472.4,118.3L472.4,118.3z M488,124.6c-1.5,0.7-2.7,1.9-3.4,3.4l4.3,0.9L488,124.6z"/>
<circle id="Oval_18_" fill="none" stroke="#000000" stroke-width="2" cx="542" cy="122" r="22"/>
<path id="Shape_18_" d="M533,112v3.6c8.5,0,15.3,6.9,15.4,15.4h3.6c0-5.2-2.1-10-5.6-13.4C543,114.1,538.2,112,533,112L533,112z
	 M533,118.5v3.6c2.4,0,4.6,0.9,6.3,2.6s2.6,3.9,2.6,6.3l0,0h3.6c0-3.5-1.4-6.6-3.7-8.9S536.5,118.5,533,118.5L533,118.5z
	 M533.7,130.2L533.7,130.2L533.7,130.2L533.7,130.2L533.7,130.2z M537.3,126.7c0.5,0.5,0.7,1.1,0.7,1.8c0,0.7-0.3,1.3-0.7,1.8l0,0
	c-0.5,0.5-1.1,0.7-1.8,0.7s-1.3-0.3-1.8-0.7c-0.5-0.5-0.7-1.1-0.7-1.8s0.3-1.3,0.7-1.8c0.5-0.5,1.1-0.7,1.8-0.7
	C536.2,125.9,536.8,126.2,537.3,126.7L537.3,126.7z"/>
<circle id="Oval_19_" fill="none" stroke="#000000" stroke-width="2" cx="602" cy="122" r="22"/>
<path id="Shape_19_" d="M606.2,115c-0.4,0-0.8,0.1-1.3,0.2c-0.4,0.1-0.8,0.4-1.2,0.6c-0.4,0.3-0.7,0.5-1,0.7s-0.5,0.5-0.8,0.7
	c-0.2-0.2-0.5-0.5-0.8-0.7s-0.6-0.5-1-0.7c-0.4-0.3-0.8-0.5-1.2-0.6s-0.9-0.2-1.3-0.2c-1.5,0-2.7,0.4-3.5,1.3
	c-0.9,0.9-1.3,2.1-1.3,3.6c0,0.5,0.1,0.9,0.2,1.4c0.2,0.5,0.3,0.9,0.5,1.3c0.2,0.3,0.4,0.7,0.7,1s0.4,0.6,0.6,0.7
	c0.1,0.1,0.2,0.2,0.3,0.3l6.3,6.3c0.1,0.1,0.3,0.2,0.4,0.2s0.3-0.1,0.4-0.2l6.3-6.3c1.5-1.6,2.3-3.2,2.3-4.7s-0.4-2.7-1.3-3.6
	C608.9,115.4,607.7,115,606.2,115z"/>
<circle id="Oval_20_" fill="none" stroke="#000000" stroke-width="2" cx="62" cy="182" r="22"/>
<path id="Shape_20_" d="M73.3,184.5c0.2-0.8,0.3-1.6,0.3-2.4c0-6.2-5.1-11.3-11.4-11.3c-0.7,0-1.3,0.1-2,0.2c-1-0.6-2.2-1-3.5-1
	c-3.7,0-6.6,2.9-6.6,6.5c0,1.2,0.3,2.3,0.9,3.3c-0.2,0.7-0.2,1.5-0.2,2.3c0,6.2,5.1,11.3,11.4,11.3c0.7,0,1.4-0.1,2.1-0.2
	c0.9,0.5,2,0.8,3.1,0.8c3.7,0,6.6-2.9,6.6-6.5C74,186.4,73.8,185.4,73.3,184.5L73.3,184.5z M67.9,187.5c-0.5,0.7-1.3,1.3-2.3,1.7
	s-2.2,0.6-3.6,0.6c-1.6,0-3-0.3-4.1-0.8c-0.8-0.4-1.4-1-1.9-1.7s-0.7-1.4-0.7-2c0-0.4,0.2-0.8,0.5-1.1s0.7-0.4,1.2-0.4
	c0.4,0,0.7,0.1,1,0.3s0.5,0.5,0.7,1s0.4,0.8,0.7,1.1c0.2,0.3,0.5,0.5,1,0.7c0.4,0.2,1,0.3,1.7,0.3c0.9,0,1.7-0.2,2.3-0.6
	c0.6-0.4,0.8-0.8,0.8-1.4c0-0.4-0.1-0.8-0.4-1.1s-0.7-0.5-1.2-0.7c-0.5-0.2-1.2-0.3-2.1-0.5c-1.2-0.3-2.2-0.5-3-0.9
	c-0.8-0.3-1.5-0.8-2-1.4c-0.5-0.6-0.7-1.4-0.7-2.3c0-0.9,0.3-1.6,0.8-2.3s1.3-1.2,2.2-1.5c1-0.3,2.1-0.5,3.4-0.5
	c1,0,1.9,0.1,2.7,0.3c0.8,0.2,1.4,0.5,1.9,0.9s0.9,0.8,1.1,1.2s0.4,0.9,0.4,1.3c0,0.4-0.2,0.8-0.5,1.1s-0.7,0.5-1.2,0.5
	c-0.4,0-0.8-0.1-1-0.3s-0.4-0.5-0.7-0.9c-0.3-0.5-0.6-1-1-1.3s-1-0.4-1.9-0.4c-0.8,0-1.5,0.2-2,0.5s-0.7,0.7-0.7,1.1
	c0,0.3,0.1,0.5,0.2,0.7c0.2,0.2,0.4,0.4,0.7,0.5c0.3,0.2,0.6,0.3,0.9,0.4c0.3,0.1,0.9,0.2,1.6,0.4c0.9,0.2,1.8,0.4,2.5,0.7
	c0.8,0.2,1.4,0.5,2,0.9c0.5,0.4,1,0.8,1.3,1.3s0.5,1.2,0.5,2C68.7,185.9,68.4,186.7,67.9,187.5L67.9,187.5z"/>
<circle id="Oval_21_" fill="none" stroke="#000000" stroke-width="2" cx="122" cy="182" r="22"/>
<path id="Shape_21_" d="M127.1,184.2c-1.5,1.5-1.5,2.9-2.9,2.9c-1.5,0-2.9-1.5-4.4-2.9c-1.5-1.5-2.9-2.9-2.9-4.4s1.5-1.5,2.9-2.9
	c1.5-1.5-2.9-5.9-4.4-5.9s-4.4,4.4-4.4,4.4c0,2.9,3,8.9,5.9,11.7c2.9,2.9,8.8,5.9,11.7,5.9c0,0,4.4-2.9,4.4-4.4
	C133,187.1,128.6,182.7,127.1,184.2"/>
<circle id="Oval_22_" fill="none" stroke="#000000" stroke-width="2" cx="182" cy="182" r="22"/>
<path id="Shape_22_" d="M173.1,178.9c0.3,0.2,1.1,0.7,2.5,1.6c1.4,0.9,2.5,1.6,3.2,2.1c0.1,0.1,0.3,0.2,0.5,0.3
	c0.3,0.2,0.5,0.3,0.7,0.4c0.2,0.1,0.4,0.2,0.6,0.4c0.2,0.1,0.5,0.2,0.7,0.3s0.4,0.1,0.6,0.1l0,0l0,0c0.2,0,0.4,0,0.6-0.1
	c0.2-0.1,0.5-0.2,0.7-0.3s0.5-0.3,0.6-0.4c0.2-0.1,0.4-0.3,0.7-0.4c0.3-0.2,0.4-0.3,0.5-0.3c0.8-0.5,2.7-1.7,5.7-3.7
	c0.6-0.4,1.1-0.9,1.5-1.4s0.6-1.1,0.6-1.7c0-0.5-0.2-0.9-0.6-1.3c-0.4-0.4-0.8-0.5-1.4-0.5H173c-0.6,0-1.1,0.2-1.5,0.6
	c-0.3,0.4-0.5,0.9-0.5,1.5c0,0.5,0.2,1,0.7,1.6C172.1,178.2,172.6,178.6,173.1,178.9z M191.8,180.1c-2.7,1.7-4.7,3-6.1,3.9
	c-0.5,0.3-0.8,0.6-1.1,0.7c-0.3,0.2-0.7,0.4-1.2,0.5c-0.5,0.2-0.9,0.3-1.4,0.3l0,0l0,0c-0.4,0-0.9-0.1-1.4-0.3s-0.9-0.4-1.2-0.5
	c-0.3-0.2-0.7-0.4-1.1-0.7c-1.1-0.7-3.1-2.1-6.1-3.9c-0.5-0.3-0.9-0.6-1.2-1v9c0,0.5,0.2,0.9,0.6,1.3c0.4,0.4,0.8,0.5,1.4,0.5h18
	c0.5,0,1-0.2,1.4-0.5c0.4-0.4,0.6-0.8,0.6-1.3v-9C192.6,179.5,192.2,179.9,191.8,180.1z"/>
<circle id="Oval_23_" fill="none" stroke="#000000" stroke-width="2" cx="242" cy="182" r="22"/>
<path id="Shape_23_" d="M234,177.8c0,4.3,8,16.2,8,16.2s8-11.9,8-16.2s-3.6-7.8-8-7.8S234,173.5,234,177.8L234,177.8z M236.9,178
	c0-2.7,2.4-5,5.1-5s5.1,2.4,5.1,5c0,2.7-2.4,5.5-5.1,5.5C239.3,183.5,236.9,180.6,236.9,178L236.9,178z"/>
<circle id="Oval_24_" fill="none" stroke="#000000" stroke-width="2" cx="302" cy="182" r="22"/>
<path id="Shape_24_" d="M313,189.3c-0.2,1.1-2.6,4.1-3.7,4.5c-0.4,0.1-0.7,0.1-1-0.1c-0.2-0.1-0.4-0.4-3-4.5l-0.8-1.2
	c-0.3-0.4-0.2-1,0.1-1.4c0.4-0.4,0.9-0.6,1.3-0.4l1.9,0.6c4.3,1.4,4.5,1.4,4.7,1.6C312.9,188.6,313,188.9,313,189.3z M304.3,183.2
	c-0.3-0.5-0.3-1,0-1.4l1.2-1.6c2.6-3.5,2.8-3.7,3-3.8c0.3-0.2,0.7-0.2,1,0c1,0.5,3.2,3.5,3.3,4.7l0,0c0,0.4-0.1,0.7-0.4,0.9
	c-0.2,0.1-0.4,0.2-5.3,1.3c-0.8,0.2-1.2,0.3-1.5,0.4l0,0C305.2,183.9,304.6,183.6,304.3,183.2z M301.3,181.4c-0.2,0.1-1,0.3-1.8-1.1
	c0,0-5.9-9.1-6.1-9.4c-0.1-0.3,0-0.7,0.3-1c0.9-0.9,5.7-2.2,6.9-1.9c0.4,0.1,0.7,0.4,0.8,0.7c0.1,0.4,0.7,8.8,0.7,10.7
	C302.2,181.1,301.5,181.3,301.3,181.4z M302.1,190.6c0,4.4,0,4.6-0.1,4.8c-0.1,0.3-0.4,0.5-0.8,0.6c-1.2,0.2-4.8-1.1-5.5-2
	c-0.2-0.2-0.2-0.4-0.3-0.6c0-0.1,0-0.3,0.1-0.4c0.1-0.2,0.2-0.4,3.5-4.1l1-1.1c0.3-0.4,0.9-0.5,1.4-0.3s0.8,0.6,0.8,1.1
	C302.1,188.6,302.1,190.6,302.1,190.6z M292.2,187.8c-0.4,0-0.7-0.2-0.9-0.6c-0.1-0.3-0.2-0.7-0.3-1.2c-0.2-1.5,0-3.8,0.5-4.5
	c0.2-0.3,0.5-0.5,0.9-0.5c0.2,0,0.4,0.1,5.1,1.9l1.4,0.5c0.5,0.2,0.8,0.7,0.8,1.2s-0.4,1-0.8,1.1l-1.9,0.6
	C292.6,187.7,292.4,187.8,292.2,187.8z"/>
<circle id="Oval_25_" fill="none" stroke="#000000" stroke-width="2" cx="362" cy="182" r="22"/>
<path id="Shape_25_" d="M368.3,175.2l-0.5,2.6c-0.1,0.3-0.4,0.6-0.7,0.6h-4.6c-0.5,0-0.9,0.4-0.9,0.9v0.6c0,0.5,0.4,0.9,0.9,0.9h3.9
	c0.4,0,0.7,0.4,0.7,0.8c-0.1,0.4-0.5,2.3-0.5,2.5s-0.3,0.6-0.7,0.6h-3.2c-0.6,0-0.8,0.1-1.2,0.6c-0.4,0.5-3.9,4.6-3.9,4.6h-0.1
	v-14.5c0-0.3,0.3-0.7,0.7-0.7h9.6C368.1,174.4,368.4,174.8,368.3,175.2L368.3,175.2z M368.8,185.2c0.1-0.5,1.6-8.1,2.1-10.4
	L368.8,185.2z M357.1,172c-1.6,0-2.1,1.2-2.1,2v18.6c0,0.9,0.5,1.2,0.7,1.3c0.3,0.1,1,0.2,1.4-0.3c0,0,5.6-6.4,5.7-6.5
	s0.1-0.1,0.3-0.1h3.6c1.5,0,1.8-1.1,1.9-1.7c0.1-0.5,1.6-8.1,2.1-10.4c0.4-1.8-0.1-2.8-1.8-2.8h-11.8V172z"/>
<circle id="Oval_26_" fill="none" stroke="#000000" stroke-width="2" cx="422" cy="182" r="22"/>
<path id="Shape_26_" d="M419.9,189.4c-0.6-1.4-0.9-2.8-1-4.3c-1,1.5-1.7,3-2.2,4.2c0,0.1-0.4,0.9-0.5,1.2s0,0.7,0.4,0.9
	c0.3,0.1,1.2,0.4,1.2,0.5c1.1,0.4,2.7,0.9,4.5,1.1C421.3,191.9,420.5,190.7,419.9,189.4z M422.2,178.3c-3.4-7-10.9-6.8-12.1-3.6
	c-0.9,2.4,3.1,8.2,12.2,4l0,0C422.3,178.6,422.2,178.4,422.2,178.3z M423.8,177.8c-1.9-4.7,1.4-7.4,3.2-6.7c1.3,0.5,2.1,4.6-3.1,6.9
	l0,0C423.9,178,423.8,177.9,423.8,177.8z M433.4,183.2c-0.8-1.8-2.2-3.1-3.9-3.7c-0.2-0.1-0.3-0.1-0.5-0.1c-0.9,0-1.7,0.7-1.8,1.7
	c-0.1,1.5,0.2,3.1,0.8,4.6c0.6,1.5,1.6,2.7,2.8,3.7c0.3,0.2,0.7,0.4,1.1,0.4c0.7,0,1.4-0.4,1.6-1C434.2,187,434.2,185,433.4,183.2z
	 M429.5,191.1c-1.4-1.1-2.6-2.6-3.4-4.5s-1.2-3.8-1-5.7c0-0.5,0.2-1,0.4-1.5h-0.1c-0.8,0.2-1.5,0.5-2.2,1c-0.9,0.6-1.8,1.6-2.1,2.7
	c-0.1,0.3-0.2,0.6-0.2,0.9c-0.1,1.5,0.1,3.1,0.8,4.5c0.6,1.4,1.6,2.6,2.7,3.5c0.7,0.6,1.9,0.9,2.9,0.9c0.9,0,1.9-0.3,2.7-0.7
	c0.3-0.1,0.8-0.5,0.9-0.5C430.4,191.6,429.9,191.4,429.5,191.1z"/>
<circle id="Oval-" fill="none" stroke="#000000" stroke-width="2" cx="482" cy="182" r="22"/>
<path id="Shape_27_" d="M488.8,182c-0.6,0-1.1,0.6-1.1,1.2c0,0.7,0.5,1.2,1.1,1.2s1.1-0.6,1.1-1.2S489.4,182,488.8,182z
	 M475.1,179.6c-1.9,0-3.4,1.6-3.4,3.7c0,2,1.5,3.7,3.4,3.7s3.4-1.6,3.4-3.7C478.4,181.2,476.9,179.6,475.1,179.6z M475.1,185.8
	c-1.3,0-2.3-1.1-2.3-2.5s1-2.5,2.3-2.5s2.3,1.1,2.3,2.5S476.4,185.8,475.1,185.8L475.1,185.8z M496,175.8h-4.6
	c-2.4-1.7-5.6-2.8-9.3-2.8c-3.7,0-7.1,1.1-9.5,2.8h-4.4c0.7,0.9,1.2,2.2,1.4,3c-0.8,1.2-1.3,2.8-1.3,4.4c0,4.2,3.1,7.6,6.9,7.6
	c2.2,0,4.1-1.1,5.4-2.8c0.5,0.7,1.4,2,1.5,2.4c0,0,1-1.6,1.6-2.4c1.3,1.7,3.2,2.8,5.4,2.8c3.8,0,6.9-3.4,6.9-7.6
	c0-1.7-0.5-3.2-1.3-4.4C494.7,178,495.2,176.7,496,175.8L496,175.8z M475.2,189.4c-3.1,0-5.6-2.7-5.6-6.1c0-3.4,2.5-6.1,5.6-6.1
	s5.6,2.7,5.6,6.1C480.7,186.7,478.2,189.4,475.2,189.4L475.2,189.4z M475.2,175.7c2-0.9,4.4-1.5,6.9-1.5s4.7,0.5,6.7,1.5
	c-3.7,0.1-6.7,3.5-6.7,7.6C482.1,179.1,479,175.7,475.2,175.7L475.2,175.7z M489,189.4c-3.1,0-5.6-2.7-5.6-6.1
	c0-3.4,2.5-6.1,5.6-6.1s5.6,2.7,5.6,6.1S492.1,189.4,489,189.4L489,189.4z M489,179.6c-1.9,0-3.4,1.6-3.4,3.7c0,2,1.5,3.7,3.4,3.7
	s3.4-1.6,3.4-3.7C492.3,181.2,490.8,179.6,489,179.6L489,179.6z M489,185.8c-1.3,0-2.3-1.1-2.3-2.5s1-2.5,2.3-2.5s2.3,1.1,2.3,2.5
	S490.3,185.8,489,185.8z M474.9,182c-0.6,0-1.1,0.6-1.1,1.2c0,0.7,0.5,1.2,1.1,1.2s1.1-0.6,1.1-1.2S475.5,182,474.9,182z"/>
<circle id="Oval_27_" fill="none" stroke="#000000" stroke-width="2" cx="542" cy="182" r="22"/>
<path id="Shape_28_" d="M540.8,179.1l3.2-4.8c0.6-0.9,1.4-1.4,2.4-1.4c0.8,0,1.5,0.3,2.1,0.9c0.6,0.6,0.9,1.3,0.9,2.1
	c0,0.6-0.2,1.1-0.5,1.6l-2.9,4.3l3.6,4.6c0.4,0.5,0.5,1,0.5,1.6c0,0.8-0.3,1.5-0.8,2.1c-0.6,0.6-1.2,0.9-2,0.9c-0.9,0-1.5-0.3-2-0.9
	l-4.4-5.6v3.1c0,0.9-0.1,1.6-0.4,2c-0.5,0.9-1.3,1.3-2.4,1.3c-0.9,0-1.7-0.3-2.2-1c-0.5-0.6-0.7-1.4-0.7-2.4v-11.4
	c0-0.9,0.2-1.7,0.7-2.3s1.2-1,2.1-1c0.9,0,1.6,0.3,2.2,1c0.3,0.4,0.5,0.7,0.6,1.1c0.1,0.2,0.1,0.6,0.1,1.3L540.8,179.1"/>
<circle id="Oval_28_" fill="none" stroke="#000000" stroke-width="2" cx="602" cy="182" r="22"/>
<path id="Shape_29_" d="M610.1,185.8c-1.2,0-2.3-0.5-3.3-1.4l0.2-1.2l0,0c0.2-1.3,0.9-3.4,3.1-3.4c1.6,0,2.9,1.4,2.9,3
	C613,184.4,611.7,185.8,610.1,185.8L610.1,185.8z M610.1,176.7c-2.8,0-4.9,1.8-5.8,4.9c-1.3-2-2.3-4.5-2.9-6.6h-3v7.9
	c0,1.6-1.2,2.8-2.8,2.8c-1.5,0-2.8-1.3-2.8-2.8V175h-3v7.9c0,3.3,2.6,5.9,5.7,5.9c3.2,0,5.7-2.7,5.7-5.9v-1.3
	c0.6,1.2,1.3,2.5,2.1,3.6l-1.8,8.8h3l1.3-6.4c1.2,0.8,2.5,1.2,4,1.2c3.2,0,5.9-2.7,5.9-6.1C616,179.4,613.4,176.7,610.1,176.7
	L610.1,176.7z"/>
<circle id="Oval_29_" fill="none" stroke="#000000" stroke-width="2" cx="62" cy="242" r="22"/>
<path id="Shape_30_" d="M50,242c0,4.9,3,9.1,7.2,11c0-0.8,0-1.8,0.2-2.8s1.5-6.5,1.5-6.5s-0.4-0.8-0.4-1.9c0-1.8,1-3.1,2.3-3.1
	c1.1,0,1.6,0.8,1.6,1.8c0,1.1-0.7,2.7-1.1,4.3c-0.3,1.3,0.6,2.3,1.9,2.3c2.3,0,3.8-2.9,3.8-6.4c0-2.6-1.8-4.6-5-4.6
	c-3.6,0-5.9,2.7-5.9,5.7c0,1,0.3,1.8,0.8,2.4c0.2,0.3,0.3,0.4,0.2,0.7c-0.1,0.2-0.2,0.8-0.2,1c-0.1,0.3-0.3,0.4-0.6,0.3
	c-1.7-0.7-2.5-2.5-2.5-4.6c0-3.4,2.9-7.5,8.6-7.5c4.6,0,7.6,3.3,7.6,6.9c0,4.7-2.6,8.2-6.5,8.2c-1.3,0-2.5-0.7-2.9-1.5
	c0,0-0.7,2.8-0.8,3.3c-0.3,0.9-0.8,1.8-1.2,2.6c1.1,0.3,2.2,0.5,3.4,0.5c6.6,0,12-5.4,12-12s-5.4-12-12-12C55.4,230,50,235.4,50,242
	z"/>
<circle id="Oval_30_" fill="none" stroke="#000000" stroke-width="2" cx="122" cy="242" r="22"/>
<path id="Shape_31_" d="M112,240.3c0,2.6,1,4.9,3,5.7c0.3,0.1,0.6,0,0.7-0.4c0.1-0.3,0.2-0.9,0.3-1.2c0.1-0.4,0.1-0.5-0.2-0.8
	c-0.6-0.7-1-1.6-1-2.9c0-3.8,2.8-7.2,7.3-7.2c4,0,6.2,2.5,6.2,5.7c0,4.3-1.9,7.9-4.7,7.9c-1.6,0-2.7-1.3-2.3-2.9
	c0.4-1.9,1.3-3.9,1.3-5.3c0-1.2-0.7-2.2-2-2.2c-1.6,0-2.9,1.7-2.9,3.9c0,1.4,0.5,2.4,0.5,2.4s-1.6,6.9-1.9,8.1
	c-0.6,2.4-0.1,5.4,0,5.7c0,0.2,0.2,0.2,0.4,0.1c0.1-0.2,2-2.5,2.7-4.9c0.2-0.7,1-4.1,1-4.1c0.5,1,2,1.9,3.6,1.9c4.8,0,8-4.4,8-10.2
	c0-4.4-3.7-8.6-9.4-8.6C115.6,231,112,236.1,112,240.3z"/>
<circle id="Oval_31_" fill="none" stroke="#000000" stroke-width="2" cx="182" cy="242" r="22"/>
<path id="Shape_32_" d="M181.6,236.5c0.4,0.6,0.6,1.3,0.6,2.1s-0.2,1.5-0.6,2c-0.2,0.3-0.6,0.5-1,0.8c0.7,0.3,1.2,0.7,1.5,1.2
	s0.5,1.2,0.5,2s-0.2,1.5-0.6,2.2c-0.2,0.4-0.6,0.8-0.9,1.1c-0.4,0.3-0.9,0.6-1.5,0.7s-1.2,0.2-1.8,0.2H172V235h6.3
	C179.9,235,181,235.5,181.6,236.5L181.6,236.5z M174.6,237.4v3h3.2c0.6,0,1-0.1,1.4-0.3c0.3-0.2,0.5-0.6,0.5-1.2
	c0-0.6-0.2-1.1-0.7-1.3c-0.4-0.1-0.9-0.2-1.5-0.2H174.6L174.6,237.4z M174.6,242.6v3.6h3.2c0.6,0,1-0.1,1.3-0.2
	c0.6-0.3,0.9-0.9,0.9-1.7c0-0.7-0.3-1.2-0.8-1.5c-0.3-0.1-0.7-0.2-1.3-0.2L174.6,242.6L174.6,242.6z M190.5,238.8
	c0.7,0.3,1.2,0.8,1.7,1.5c0.4,0.6,0.7,1.3,0.8,2.1c0.1,0.5,0.1,1.1,0.1,2h-7c0,1,0.4,1.7,1,2.1c0.4,0.3,0.8,0.4,1.4,0.4
	c0.6,0,1-0.2,1.4-0.5c0.2-0.2,0.4-0.4,0.5-0.7h2.6c-0.1,0.6-0.4,1.2-0.9,1.8c-0.9,1-2.1,1.5-3.6,1.5c-1.3,0-2.4-0.4-3.4-1.2
	s-1.5-2.2-1.5-4s0.4-3.1,1.3-4c0.9-0.9,2-1.4,3.4-1.4C189.1,238.3,189.8,238.4,190.5,238.8L190.5,238.8z M186.7,241
	c-0.4,0.4-0.6,0.9-0.7,1.6h4.3c0-0.7-0.3-1.2-0.7-1.6c-0.4-0.4-0.9-0.5-1.5-0.5C187.6,240.5,187.1,240.7,186.7,241L186.7,241z
	 M185.4,237.3h5.6v-1.7h-5.6V237.3z"/>
<circle id="Oval_32_" fill="none" stroke="#000000" stroke-width="2" cx="242" cy="242" r="22"/>
<path id="Shape_33_" d="M252.8,239.8c-0.1-0.7-0.4-1.4-0.6-2.1c-0.3-0.7-0.6-1.3-1-1.9c-0.4-0.6-0.8-1.1-1.3-1.6s-1-0.9-1.6-1.3
	c-0.6-0.4-1.2-0.7-1.9-1s-1.4-0.5-2.1-0.6c-0.7-0.1-1.5-0.2-2.2-0.2s-1.5,0.1-2.2,0.2c-0.7,0.1-1.4,0.4-2.1,0.6
	c-0.7,0.3-1.3,0.6-1.9,1c-0.6,0.4-1.1,0.8-1.6,1.3s-0.9,1-1.3,1.6c-0.4,0.6-0.7,1.2-1,1.9s-0.5,1.4-0.6,2.1
	c-0.1,0.7-0.2,1.5-0.2,2.2s0.1,1.5,0.2,2.2c0.1,0.7,0.4,1.4,0.6,2.1c0.3,0.7,0.6,1.3,1,1.9c0.4,0.6,0.8,1.1,1.3,1.6s1,0.9,1.6,1.3
	c0.6,0.4,1.2,0.7,1.9,1s1.4,0.5,2.1,0.6c0.7,0.2,1.5,0.2,2.2,0.2s1.5-0.1,2.2-0.2c0.7-0.1,1.4-0.4,2.1-0.6c0.7-0.3,1.3-0.6,1.9-1
	c0.6-0.4,1.1-0.8,1.6-1.3s0.9-1,1.3-1.6c0.4-0.6,0.7-1.2,1-1.9s0.5-1.4,0.6-2.1c0.1-0.7,0.2-1.5,0.2-2.2S252.9,240.5,252.8,239.8
	L252.8,239.8z M251.4,241.9c-0.1,0-3.3-0.7-6.5-0.3c-0.1-0.2-0.1-0.3-0.2-0.5c-0.2-0.5-0.4-0.9-0.6-1.4c3.7-1.5,5.2-3.7,5.2-3.7
	C250.6,237.6,251.4,239.7,251.4,241.9L251.4,241.9z M248.2,235c0,0-1.4,2.1-4.9,3.4c-1.6-3-3.4-5.3-3.5-5.5c0.7-0.2,1.5-0.3,2.2-0.3
	C244.4,232.6,246.5,233.5,248.2,235L248.2,235z M239.7,232.9L239.7,232.9L239.7,232.9L239.7,232.9L239.7,232.9z M238,233.5
	c0.1,0.2,1.9,2.5,3.5,5.4c-4.5,1.2-8.4,1.2-8.7,1.1C233.4,237.2,235.4,234.7,238,233.5L238,233.5z M232.6,242c0-0.1,0-0.2,0-0.3
	c0.2,0,4.8,0.1,9.6-1.3c0.3,0.5,0.5,1.1,0.8,1.6c-0.1,0-0.2,0.1-0.4,0.1c-5.1,1.6-7.6,6.2-7.6,6.2l0,0
	C233.5,246.6,232.6,244.4,232.6,242L232.6,242z M242,251.4c-2.3,0-4.4-0.8-6-2.2c0.1,0.1,0.2,0.2,0.2,0.2s1.8-3.9,7.4-5.9
	c0,0,0,0,0.1,0c1.3,3.4,1.9,6.3,2,7.1C244.5,251.1,243.3,251.4,242,251.4L242,251.4z M247.3,249.8c-0.1-0.6-0.6-3.3-1.8-6.7
	c3-0.5,5.7,0.3,5.9,0.4C250.9,246.1,249.4,248.4,247.3,249.8L247.3,249.8z"/>
<circle id="Oval_33_" fill="none" stroke="#000000" stroke-width="2" cx="302" cy="242" r="22"/>
<path id="Shape_34_" d="M298.9,236.7c-0.3,2-1.3,2.8-2.4,2.9v0.6h1.4v5.1c0,1.4,0.9,2.1,2.1,2.1c0.9,0,1.9-0.4,2.2-1.3l-0.3-0.5
	c-0.2,0.3-0.7,0.7-1.3,0.7c-0.7,0-1.1-0.5-1.1-1.8V240l2.4,0.2l0.1-1.1l-2.5,0.1v-2.6h-0.6V236.7z M303.9,244.6h-0.6
	c0.1,0.8,0.1,1.6,0,2.3c0,0,1.2,0.5,2.4,0.5c1.7,0,3-0.8,3-2.5c0-2.8-4-2.4-4-4.3c0-0.8,0.7-1.1,1.4-1.1c0.6,0,1.1,0.2,1.2,0.5
	l0.4,1.3h0.6c0-0.7,0.1-1.4,0.2-2.1c-0.5-0.2-1.6-0.4-2.2-0.4c-1.6,0-2.8,0.7-2.8,2.3c0,2.8,3.9,2.2,3.9,4.3c0,0.7-0.4,1.2-1.4,1.2
	c-0.9,0-1.4-0.5-1.5-1L303.9,244.6L303.9,244.6z M310.4,250c-0.5,0-0.6-0.2-0.7-0.6l-0.2-1.3h-0.7c-0.1,0.8-0.2,1.6-0.4,2.3
	c0.4,0.3,1,0.5,1.7,0.5c1.1,0,2.7-0.3,4.2-4l2.5-6.3c0.2-0.5,0.3-0.6,0.9-0.8l0.3-0.1v-0.6l-1.5,0.1l-1.6-0.1v0.6l0.4,0.1
	c0.4,0.1,0.6,0.3,0.6,0.6c0,0.2,0,0.3-0.1,0.5c-0.2,0.5-1.3,3.4-1.9,4.7c-0.7-1.8-1.7-4.6-1.8-5c0-0.1,0-0.2,0-0.3
	c0-0.3,0.2-0.5,0.6-0.6l0.5-0.1V239l-2.2,0.1l-1.7-0.1v0.6l0.3,0.1c0.4,0.2,0.5,0.2,0.7,0.8c1.1,2.6,2.3,5.9,2.7,7
	C312.1,249.5,311.1,250,310.4,250L310.4,250z M289.4,236.3c0-0.2,0-0.3,0.3-0.3h3.6c0.6,0,1,0.6,1.2,1.6l0.2,0.9h0.6
	c0.1-2.4,0.2-3.5,0.2-3.5s-1.6,0.2-2.5,0.2h-4.7l-2.5-0.1v0.7l0.8,0.2c0.6,0.1,0.7,0.3,0.8,0.8c0,0,0,1.7,0,4.4c0,2.8,0,4.4,0,4.4
	c0,0.5-0.2,0.7-0.8,0.8l-0.8,0.2v0.7l2.5-0.1h4.2c0.9,0,3.1,0.1,3.1,0.1c0-0.6,0.4-3.3,0.4-3.6h-0.6l-0.6,1.5
	c-0.5,1.2-1.2,1.3-2,1.3h-2.4c-0.8,0-1.2-0.3-1.2-1.1v-3.8c0,0,1.8,0,2.3,0.1c0.4,0,0.7,0.2,0.9,0.8l0.2,0.9h0.7v-2.2l0.1-2.2h-0.7
	l-0.2,1c-0.1,0.6-0.2,0.8-0.9,0.8c-0.8,0.1-2.4,0.1-2.4,0.1v-4.6H289.4z"/>
<circle id="Oval_34_" fill="none" stroke="#000000" stroke-width="2" cx="362" cy="242" r="22"/>
<path id="Shape_35_" d="M359.2,234c0-0.3,0-0.4,0.4-0.4h5.7c1,0,1.5,0.9,1.9,2.7l0.3,1.4h1c0.2-3.9,0.3-5.7,0.3-5.7
	s-2.4,0.3-3.9,0.3h-7.3l-3.9-0.1v1.1l1.3,0.3c0.9,0.2,1.1,0.4,1.2,1.3c0,0,0.1,2.7,0.1,7.2s-0.1,7.2-0.1,7.2c0,0.8-0.3,1.1-1.2,1.3
	l-1.3,0.3v1.1l3.9-0.1h6.5c1.5,0,4.9,0.1,4.9,0.1c0.1-1,0.6-5.4,0.6-5.9h-0.9l-1,2.4c-0.8,1.9-1.9,2-3.1,2h-3.7
	c-1.2,0-1.8-0.5-1.8-1.7v-6.2c0,0,2.8,0,3.7,0.1c0.7,0.1,1.1,0.3,1.3,1.3l0.3,1.4h1.1l-0.1-3.6l0.1-3.6h-1.1l-0.3,1.6
	c-0.2,1-0.4,1.2-1.3,1.3c-1.3,0.1-3.7,0.1-3.7,0.1V234H359.2z"/>
<circle id="Oval_35_" fill="none" stroke="#000000" stroke-width="2" cx="422" cy="242" r="22"/>
<path id="Shape_36_" d="M433,242c0,2.8-2.2,5-4.8,5c-2.7,0-4.8-2.2-4.8-5s2.2-5,4.8-5S433,239.2,433,242 M420.7,242
	c0,2.8-2.2,5-4.8,5c-2.7,0-4.8-2.2-4.8-5s2.2-5,4.8-5S420.7,239.2,420.7,242"/>
<circle id="Oval_36_" fill="none" stroke="#000000" stroke-width="2" cx="482" cy="242" r="22"/>
<path id="Shape_37_" d="M493,242.3c-0.4-0.5-0.9-0.7-1.5-0.7c-0.3,0-0.7,0.1-1,0.2c-0.3,0.2-0.6,0.4-0.9,0.6
	c-0.3,0.2-0.6,0.5-0.8,0.8c-0.3,0.3-0.5,0.5-0.7,0.8c0.2,0.3,0.5,0.5,0.7,0.8c0.3,0.3,0.5,0.5,0.8,0.7s0.6,0.4,0.9,0.5
	s0.7,0.2,1,0.2c0.6,0,1.1-0.2,1.5-0.7c0.3-0.4,0.5-1,0.5-1.6C493.6,243.3,493.4,242.7,493,242.3L493,242.3z M484.2,243.2
	c-0.3-0.3-0.6-0.5-0.9-0.8c-0.3-0.2-0.6-0.4-0.9-0.6c-0.3-0.2-0.7-0.2-1-0.2c-0.6,0-1.1,0.2-1.4,0.7c-0.4,0.5-0.5,1-0.5,1.6
	c0,0.7,0.2,1.2,0.5,1.6c0.4,0.4,0.9,0.6,1.5,0.6c0.3,0,0.7-0.1,1-0.2c0.3-0.1,0.6-0.3,0.9-0.5s0.6-0.4,0.8-0.7
	c0.3-0.3,0.5-0.5,0.7-0.8C484.7,243.7,484.5,243.4,484.2,243.2L484.2,243.2z M495.7,245.8c-0.2,0.6-0.5,1.2-0.9,1.6
	c-0.4,0.5-0.9,0.8-1.4,1.1c-0.6,0.3-1.2,0.4-1.9,0.4c-0.5,0-1-0.1-1.5-0.3s-0.9-0.4-1.3-0.7s-0.8-0.6-1.2-1c-0.4-0.4-0.7-0.8-1-1.2
	c-0.4,0.4-0.7,0.8-1.1,1.2c-0.3,0.4-0.7,0.7-1.1,1s-0.8,0.5-1.3,0.7s-1,0.3-1.5,0.3c-0.7,0-1.3-0.1-1.9-0.4c-0.6-0.3-1-0.6-1.4-1.1
	c-0.4-0.4-0.7-0.9-0.9-1.4l0,0c-0.3,0.6-0.6,1.1-1.1,1.6c-0.4,0.4-1,0.8-1.5,1c-0.6,0.2-1.2,0.4-1.9,0.3c-0.6,0-1.2-0.1-1.8-0.3
	c-0.6-0.2-1.1-0.4-1.5-0.8c-0.4-0.4-0.8-0.8-1.1-1.4c-0.3-0.5-0.4-1.2-0.4-1.9h2.7c0.1,0.6,0.3,1.1,0.7,1.5c0.4,0.4,0.9,0.6,1.5,0.6
	c0.3,0,0.7-0.1,0.9-0.2c0.3-0.2,0.5-0.3,0.7-0.6c0.2-0.2,0.3-0.5,0.4-0.8s0.2-0.7,0.2-1c0-0.4,0-0.7-0.1-1s-0.2-0.6-0.4-0.8
	c-0.2-0.2-0.4-0.4-0.7-0.5c-0.3-0.1-0.6-0.2-1-0.2c-0.5,0-0.9,0.1-1.2,0.3c-0.3,0.2-0.6,0.5-0.8,0.8h-2.4l1.3-7.6h7.3v2.3h-5.4
	l-0.5,3.1l0,0c0.4-0.4,0.7-0.7,1.2-0.8c0.4-0.2,0.9-0.2,1.4-0.2c0.6,0,1.2,0.1,1.7,0.4c0.5,0.2,0.9,0.6,1.3,1
	c0.3,0.3,0.5,0.7,0.6,1.1c0.2-0.6,0.5-1.1,0.9-1.5s0.8-0.8,1.4-1.1s1.2-0.4,1.9-0.4c0.6,0,1.1,0.1,1.6,0.3s0.9,0.4,1.3,0.7
	s0.8,0.6,1.1,1c0.4,0.4,0.7,0.8,1.1,1.2c0.3-0.4,0.7-0.8,1-1.2c0.4-0.4,0.7-0.7,1.1-1s0.8-0.5,1.3-0.7s1-0.3,1.5-0.3
	c0.7,0,1.3,0.1,1.9,0.4c0.6,0.3,1,0.6,1.4,1s0.7,1,0.9,1.6c0.2,0.6,0.3,1.3,0.3,2C496,244.5,495.9,245.2,495.7,245.8L495.7,245.8z"
	/>
<circle id="Oval_37_" fill="none" stroke="#000000" stroke-width="2" cx="542" cy="242" r="22"/>
<path id="Shape_38_" d="M542,233.7c-1,0-1.8-0.8-1.8-1.8s0.8-1.8,1.8-1.8s1.8,0.8,1.8,1.8S543,233.7,542,233.7z M531.8,243.8
	c-0.5,0-0.9-0.2-1.3-0.5c-0.7-0.7-0.7-1.9,0-2.6c0.4-0.4,0.8-0.5,1.3-0.5s0.9,0.2,1.3,0.5c0.7,0.7,0.7,1.9,0,2.6
	C532.8,243.7,532.3,243.8,531.8,243.8z M536.9,238.8c-0.5,0-0.9-0.2-1.3-0.5c-0.7-0.7-0.7-1.9,0-2.6c0.4-0.4,0.8-0.5,1.3-0.5
	s0.9,0.2,1.3,0.5c0.7,0.7,0.7,1.9,0,2.6C537.9,238.6,537.4,238.8,536.9,238.8z M547,238.7c-1,0-1.8-0.8-1.8-1.8s0.8-1.8,1.8-1.8l0,0
	c1,0,1.8,0.8,1.8,1.8C548.9,237.9,548,238.7,547,238.7z M536.9,248.9c-0.5,0-0.9-0.2-1.3-0.5c-0.7-0.7-0.7-1.9,0-2.6
	c0.4-0.4,0.8-0.5,1.3-0.5s0.9,0.2,1.3,0.5c0.7,0.7,0.7,1.9,0,2.6C537.8,248.7,537.3,248.9,536.9,248.9z M541.9,243.8
	c-0.5,0-0.9-0.2-1.3-0.5c-0.7-0.7-0.7-1.9,0-2.6c0.4-0.4,0.8-0.5,1.3-0.5s0.9,0.2,1.3,0.5c0.7,0.7,0.7,1.9,0,2.6
	C542.9,243.6,542.4,243.8,541.9,243.8z M552.2,243.8c-1,0-1.8-0.8-1.8-1.8s0.8-1.8,1.8-1.8l0,0c1,0,1.8,0.8,1.8,1.8
	S553.2,243.8,552.2,243.8z M542,254c-0.5,0-0.9-0.2-1.3-0.5c-0.7-0.7-0.7-1.9,0-2.6c0.4-0.4,0.8-0.5,1.3-0.5s0.9,0.2,1.3,0.5
	c0.7,0.7,0.7,1.9,0,2.6C542.9,253.8,542.5,254,542,254z M547.1,248.9c-0.5,0-0.9-0.2-1.3-0.5c-0.7-0.7-0.7-1.9,0-2.6
	c0.4-0.4,0.8-0.5,1.3-0.5s0.9,0.2,1.3,0.5c0.7,0.7,0.7,1.9,0,2.6C548,248.7,547.5,248.9,547.1,248.9z"/>
<circle id="Oval_38_" fill="none" stroke="#000000" stroke-width="2" cx="602" cy="242" r="22"/>
<path id="Shape_39_" d="M611.1,235.8h2.7v13h-3.2c1.5-2,2.3-4.4,2.3-6.9C612.9,239.7,612.3,237.6,611.1,235.8L611.1,235.8z
	 M590.2,235.8h2.9c-1.2,1.8-1.8,3.9-1.8,6.1c0,2.5,0.8,5,2.3,6.9h-3.4V235.8z M602.2,234.1l0.2,1.7c3.4,0.3,5.6,2.3,5.8,5.8l1.8,0.1
	C610,237.3,606.7,234,602.2,234.1L602.2,234.1z M602.4,232.6L602.4,232.6c2,0.1,3.8,0.7,5.4,2c0.2,0.2,0.5,0.4,0.7,0.6
	c0.2,0.2,0.4,0.4,0.6,0.7l0,0c1.5,1.7,2.3,3.9,2.3,6.1c0,2.6-1.1,5.2-3.1,6.9c-0.2,0.2-0.5,0.4-0.7,0.6l0,0l0,0
	c-0.2,0.2-0.5,0.3-0.7,0.5l0,0c-0.1,0.1-0.2,0.1-0.3,0.2c-2.7,1.5-6,1.5-8.7,0c-0.2-0.1-0.5-0.3-0.7-0.4l-0.1-0.1
	c-0.2-0.1-0.3-0.2-0.5-0.4c-0.1-0.1-0.3-0.2-0.4-0.3l0,0c-1.9-1.8-3.1-4.3-3.1-6.9c0-2.2,0.8-4.4,2.2-6.1l0,0
	c0.2-0.2,0.4-0.4,0.6-0.6c0.2-0.2,0.4-0.4,0.7-0.6C598.1,233.2,600.2,232.5,602.4,232.6L602.4,232.6z M602.4,231
	c-2.8-0.1-5.5,0.9-7.6,2.9v-0.4c0-0.2-0.2-0.4-0.4-0.4h-3.7c-0.2,0-0.4,0.2-0.4,0.4v1H589V250h5.8c4.1,3.9,10.5,3.9,14.7,0h5.6
	v-15.5h-4.9C608.1,232.4,605.3,231.1,602.4,231L602.4,231z"/>
<circle id="Oval_39_" fill="none" stroke="#000000" stroke-width="2" cx="62" cy="302" r="22"/>
<path id="Shape_40_" d="M63.3,309.6c-0.5,0.1-0.9,0.2-1.4,0.2c-2.4,0-5.2-1.1-5.2-7.7s3-8.5,5.3-8.5c2.4,0,5.1,1.6,5.1,8.2
	c0,3-0.6,4.9-1.5,6.1l0,0c-2-2.6-4.5-2-5.1-1.7c0,0,0.1,0.6,0.2,1.7C62.2,308,62.9,308.7,63.3,309.6L63.3,309.6L63.3,309.6z
	 M67.2,310.9L67.2,310.9c2.9-1.9,4.8-5.3,4.8-9.3c0-7.8-4.9-10.6-10-10.6c-4.8,0-10,3.9-10,10.7c0,7.8,4.9,10.7,10,10.7
	c0.8,0,1.6-0.1,2.3-0.3l0,0c2,3.7,5,2.8,5.8,2.5c0,0-0.1-0.7-0.3-1.9C68.4,312.8,67.7,312,67.2,310.9L67.2,310.9z"/>
<circle id="Oval_40_" fill="none" stroke="#000000" stroke-width="2" cx="122" cy="302" r="22"/>
<path id="Shape_41_" d="M125.4,306.5l-10-0.9l-0.2,2.2l10,0.9L125.4,306.5z M125.2,309.3h-10.1v2.2h10.1V309.3z M127.4,301.2
	l-8.7-5.2l-1.1,1.9l8.7,5.2L127.4,301.2z M126.1,303.7l-9.7-2.7l-0.6,2.1l9.7,2.7L126.1,303.7z M126.9,313.3h-13.2v-9H112V315l0,0
	h0.5h16.1l0,0v-0.5v-10.2h-1.7C126.9,304.3,126.9,313.3,126.9,313.3z M130.3,289l-2.1,0.4l1.7,10.1l2.1-0.4L130.3,289z M122.1,292.4
	l5.7,8.5l1.8-1.2l-5.7-8.5L122.1,292.4z"/>
<circle id="Oval_41_" fill="none" stroke="#000000" stroke-width="2" cx="182" cy="302" r="22"/>
<path id="Shape_42_" d="M170,302.3c0,5.4,3.4,10,8.2,11.7c0.6,0.1,0.8-0.3,0.8-0.6c0-0.3,0-1.1,0-2.1c-3.3,0.7-4-1.6-4-1.6
	c-0.5-1.4-1.3-1.8-1.3-1.8c-1.1-0.8,0.1-0.7,0.1-0.7c1.2,0.1,1.8,1.3,1.8,1.3c1.1,1.9,2.8,1.3,3.5,1c0.1-0.8,0.4-1.3,0.8-1.6
	c-2.7-0.3-5.5-1.4-5.5-6.1c0-1.3,0.5-2.4,1.2-3.3c-0.1-0.3-0.5-1.6,0.1-3.3c0,0,1-0.3,3.3,1.3c1-0.3,2-0.4,3-0.4s2,0.1,3,0.4
	c2.3-1.6,3.3-1.3,3.3-1.3c0.7,1.7,0.2,2.9,0.1,3.3c0.8,0.9,1.2,2,1.2,3.3c0,4.7-2.8,5.8-5.5,6.1c0.4,0.4,0.8,1.1,0.8,2.3
	c0,1.6,0,3,0,3.4c0,0.3,0.2,0.7,0.8,0.6c4.8-1.6,8.2-6.2,8.2-11.7c0-6.8-5.4-12.3-12-12.3C175.4,290,170,295.5,170,302.3z"/>
<circle id="Oval_42_" fill="none" stroke="#000000" stroke-width="2" cx="242" cy="302" r="22"/>
<path id="Shape_43_" d="M247.3,300.8l-4.3-3V293l7.7,5.4L247.3,300.8z M249.1,302l2.5-1.7v3.5L249.1,302z M243,306.2l4.3-3l3.5,2.4
	L243,311V306.2z M236.7,303.2l4.3,3v4.8l-7.7-5.4L236.7,303.2z M234.9,302l-2.5,1.7v-3.5L234.9,302z M241,297.8l-4.3,3l-3.5-2.4
	l7.7-5.4v4.8H241z M242,304.4l-3.5-2.4l3.5-2.4l3.5,2.4L242,304.4z M253.5,298.2C253.5,298.1,253.5,298.1,253.5,298.2
	c0-0.1,0-0.1,0-0.1V298c0,0,0,0,0-0.1c0,0,0,0,0-0.1l0,0c0,0,0,0,0-0.1l0,0c0,0,0,0,0-0.1l0,0c0,0,0,0-0.1,0l0,0l0,0l-10.5-7.3
	c-0.3-0.2-0.8-0.2-1.1,0l-10.5,7.3l0,0l0,0c0,0,0,0-0.1,0l0,0c0,0,0,0,0,0.1l0,0c0,0,0,0,0,0.1l0,0c0,0,0,0,0,0.1c0,0,0,0,0,0.1v0.1
	c0,0,0,0,0,0.1v0.1l0,0v0.1v7.3v0.1l0,0v0.1c0,0,0,0,0,0.1v0.1l0,0c0,0,0,0,0,0.1l0,0c0,0,0,0,0,0.1l0,0c0,0,0,0,0,0.1l0,0
	c0,0,0,0,0.1,0l0,0l0,0l10.5,7.3c0.2,0.1,0.4,0.2,0.5,0.2c0.2,0,0.4-0.1,0.5-0.2l10.5-7.3l0,0l0,0c0,0,0,0,0.1,0l0,0c0,0,0,0,0-0.1
	l0,0c0,0,0,0,0-0.1l0,0c0,0,0,0,0-0.1l0,0V306c0,0,0,0,0-0.1v-0.1l0,0v-0.1v-7.3C253.5,298.3,253.5,298.3,253.5,298.2L253.5,298.2
	L253.5,298.2z"/>
<circle id="Oval_43_" fill="none" stroke="#000000" stroke-width="2" cx="302" cy="302" r="22"/>
<path id="Shape_44_" d="M314,305.2c0,2.7-2.1,4.8-4.7,4.8c-0.1,0-0.2,0-0.3,0h-14.3c-2.6-0.2-4.8-2.2-4.8-4.9c0-1.8,0.9-3.4,2.4-4.2
	c-0.1-0.3-0.1-0.6-0.1-1c0-1.9,1.5-3.4,3.3-3.4c0.8,0,1.5,0.3,2,0.7c1.1-2.5,3.6-4.2,6.4-4.2c3.9,0,7.1,3.3,7.1,7.3
	c0,0.1,0,0.3,0,0.4C312.8,301.5,314,303.2,314,305.2L314,305.2z M298.9,307.2c1.1,0,2-0.4,2.8-1.2c-0.3-0.4-0.7-0.9-1.1-1.3
	c-0.5,0.5-1,0.8-1.7,0.8c-0.8,0-1.5-0.6-1.5-1.5s0.7-1.5,1.5-1.5c2.6,0,3.1,4.7,6.9,4.7c1.8,0,3.4-1.2,3.4-3.2s-1.6-3.2-3.4-3.2
	c-1.1,0-2,0.3-2.8,1.2c0.4,0.4,0.7,0.9,1.1,1.3c0.5-0.5,1-0.8,1.7-0.8c0.8,0,1.5,0.6,1.5,1.4c0,0.9-0.7,1.5-1.5,1.5
	c-2.5,0-3.2-4.7-6.8-4.7c-1.8,0-3.4,1.2-3.4,3.2C295.5,306,297,307.2,298.9,307.2L298.9,307.2z"/>
<circle id="Oval_44_" fill="none" stroke="#000000" stroke-width="2" cx="362" cy="302" r="22"/>
<path id="Shape_45_" d="M367.7,304.8c0.1,0,0.2,0.1,0.3,0.1c0-0.1,0.1-0.3,0.1-0.5c-0.2,0-0.3,0-0.4,0
	C367.7,304.6,367.7,304.7,367.7,304.8L367.7,304.8z M362.8,292.5c0.6,0.1,1.3,0.3,1.9,0.3c-1-1.4-2.7-1.7-4.2-1.3
	C361.6,291.7,362.3,292.1,362.8,292.5L362.8,292.5z M365.4,292.7c0.2-0.1,0.4-0.3,0.6-0.5c-0.3-0.2-0.8-0.4-1.3-0.6
	c-0.1,0.1-0.1,0.1-0.1,0.2C364.9,292,365.2,292.4,365.4,292.7L365.4,292.7z M366.3,291.7c0.2-0.4,0.3-0.7,0.3-0.7
	C366.5,291.1,366.5,291.4,366.3,291.7c0.4,0.3,0.6,0.5,0.8,0.7c0.3-0.3,0.7-0.8,0.7-1.5c0-0.9-0.7-1-0.7-1c-0.1,0-0.1-0.1-0.1-0.1
	c0-0.1,0.1-0.1,0.1-0.1s0.9,0.1,0.8,1.2c0,0.7-0.5,1.4-0.8,1.6c0.1,0.1,0.1,0.2,0.2,0.3l1.2-0.9c0.7-1,0.6-1.9,0.6-1.9
	c0-0.1,0-0.1,0.1-0.1s0.1,0,0.1,0.1c0,0,0,0.8-0.4,1.6l3.8-2.8l-5.1,4.6c0.1,0.4,0.1,0.7,0.1,1h0.1c1.2-0.8,2.6-1.4,2.6-1.4
	s-0.9,0.8-2,1.6c0.2,0.1,0.5,0.2,0.7,0.4c0.3-0.2,0.7-0.4,1.2-0.5c0.4-0.4,0.6-0.6,0.6-0.6h0.1v0.1c0,0-0.2,0.1-0.4,0.4
	c0.1,0,0.3-0.1,0.4-0.1c0.3,0,0.5,0,0.7,0.1c0.1-0.2,0.2-0.3,0.3-0.5c0.4-0.9-0.3-0.5-0.3-0.5h-0.1v-0.1c0,0,1.1-0.6,0.5,0.7
	c-0.1,0.2-0.2,0.4-0.3,0.5c0.3,0.2,0.4,0.6,0.4,0.6c0,0.1,0,0.1-0.1,0.1s-0.1,0-0.1-0.1c0,0,0-0.3-0.3-0.5c-0.4,0.5-1,0.9-1.4,1.1
	c0.6,0.5,1.2,1,1.7,1.7c0.7-0.6,1.3-0.7,1.5,0.3l0,0v0.1c0-0.1,0.1-0.1,0.1-0.2c0.1-0.2,0.2-0.3,0.4-0.4c0-0.1,0-0.1,0-0.1l0.1-0.1
	c0,0,0,0,0.1,0c0.5-0.2,0.8,0.5,0.8,0.5v0.1h-0.1c0,0-0.3-0.6-0.7-0.4c-0.1,0.2-0.3,0.7-0.6,1.1c0,0.6,0,1.4-0.2,2.2l0,0
	c0,0.1-0.1,0.2-0.1,0.2c-0.1,0.3-0.3,0.5-0.5,0.8c-0.9,1.1-1.9,1.3-2.4,1.4c0,0.3,0.1,0.6,0,1c0.6,0,1.2,0,1.8,0
	c1,0,1.9-0.1,2.6-0.2c0.4-0.1,0.7-0.1,0.8-0.2c-0.1,0-0.8,0-0.4-0.3c0.2-0.1,0.4-0.1,0.6-0.1c0.1,0,0.2,0.1,0.2,0.2s0,0.2-0.1,0.3
	c-0.1,0.2-0.5,0.3-1.1,0.4c-0.7,0.1-1.6,0.2-2.6,0.2c-0.6,0-1.3,0-1.9,0c-0.1,0.4-0.3,0.7-0.5,1c0.9,0.2,2,0.4,3.2,0.4
	c3.4,0,5-0.6,5-0.6s-2,1-4.5,1.1c-0.1,0.3-0.3,0.7-1.1,0.7c-0.8,0-1.9-0.5-2.5-0.9c0.5,0.7,0.6,1.7,0.6,1.7c0,0.1,0,0.1-0.1,0.1
	s-0.1,0-0.1-0.1c0,0-0.1-1.3-0.8-1.9h-0.2c-0.3,0.3-0.6,0.4-0.8,0.6l2.4,2.9l-0.2,0.2l-2.4-2.8c0,0-0.1,0.1-0.2,0.2
	c-0.2,0.3-0.4,0.8-0.9,1.3c0.3,0.1,0.9,0.3,1.3,0.8c0.7,0.9-0.2,1.7-0.2,1.7l-0.1-0.1c0,0,0.7-0.8,0.1-1.5c-0.5-0.6-1-0.7-1.3-0.8
	c-0.2,0.2-0.4,0.4-0.7,0.6c0.2,0.3,0.4,0.7,0.5,1s0.2,0.6,0.2,0.9c0,1.1-1,1.4-1.9,1.4c-0.3,0-0.5-0.1-0.8-0.1
	c0.1,0.6,0.2,1.3,0.1,2.2c-0.2,2.9-2.7,2.7-2.7,2.7s2.3-0.2,2.5-2.7c0.1-0.9,0-1.6-0.2-2.2c-0.4-0.1-0.8-0.4-1.2-0.6
	c-0.2,0.3-0.4,0.5-0.9,0.5c-0.1,0-0.2,0-0.3-0.1c-0.2,0.1-0.5,0-0.7-0.2c-0.2-0.1-0.4-0.3-0.5-0.5c-0.4,0.6-0.8,1.2-1.2,1.8
	c-0.1,1.3-0.2,2.6-0.4,3.6c-0.3,1.5-0.6,2.5-1.4,2.2c0.5,0.1,0.8-0.8,1.1-2c0.2-1,0.3-2.1,0.4-3.4c-0.6,0.8-1.2,1.7-1.9,2.4
	c-0.5,0.5-1,1.1-1.5,1.3c1.1-1.1,2.3-2.5,3.4-4.1c0-0.6,0.1-1.2,0.1-1.8c-1.1,1.5-2.3,2.9-3.3,4c-4,3.8-1.3-1.2-1.1-1
	c0,0-1.7,3.3,0.9,0.7c1.1-1.1,2.4-2.7,3.5-4.2v-0.1c-0.3-0.1-0.5-0.1-0.8-0.2c-0.1,0.1-0.2,0.3-0.3,0.4c-0.3,1.4-1.1,2.4-1.1,2.4
	h-0.1V313c0,0,0.7-0.8,1-1.9c-0.1,0.1-0.2,0.2-0.3,0.3c-1.1,1.5-1.5,1-1.6,0.8v-0.1h0.1c0,0,0.3,0.3,1.3-0.8
	c0.2-0.2,0.4-0.4,0.6-0.6c0-0.1,0-0.3,0.1-0.5h-0.1c-0.4,0.2-0.9,0.4-1.6,0.3c-0.1,0-0.2,0-0.3,0c-0.2,0.3-0.5,0.5-0.8,0.6
	s-0.7,0.2-1.1,0.1s-0.8-0.3-1.1-0.6c-0.4-0.4-0.6-0.9-0.7-1.5l0,0c-0.2-1.4,0.5-2.1,1.1-2.5c-0.1-0.3-0.2-0.5-0.2-0.6
	c-0.1-0.1-0.2-0.2-0.3-0.3h-0.1c0,0,0,0,0-0.1c-0.1-0.1-0.2-0.2-0.3-0.3l0,0l0,0c-0.5-0.5-1-1.1-1.1-1.7c-0.2-0.9,0.3-1.6,0.8-2.2
	l0,0l0,0c0.2-0.2,0.3-0.3,0.5-0.4c0.1-0.4,0.2-0.8,0.3-1.2c-0.1-0.5-0.1-0.9-0.1-1.4c0-0.2,0-0.5,0.1-0.7c-0.2,0-0.4,0.1-0.6,0.2
	s-0.4,0.2-0.6,0.4c-0.3,0.3-0.5,0.5-0.5,0.8v0.1c0.1,0,0.2,0,0.3,0.1c0.5,0.1,0.9,0.4,1,0.8c0.1,0.2,0,0.4,0,0.5
	c-0.1,0.1-0.1,0.2-0.2,0.2s-0.2,0-0.3,0l0,0c-0.2,0-0.4-0.2-0.6-0.4c-0.3,0-1.1,0-1.1-0.8c0-0.2,0.1-0.3,0.2-0.4l0,0
	c0.1-0.1,0.3-0.1,0.4-0.1c0-0.1,0-0.1,0-0.2c0.1-0.4,0.3-0.7,0.6-1c0.2-0.2,0.4-0.3,0.7-0.4c0.3-0.1,0.5-0.2,0.8-0.3
	c0.2-0.8,0.5-1.6,1.1-2.3c-0.4-0.4-1-0.9-1.8-1.4c1.1,0.1,1.8,0.5,2.2,0.9c0.4-0.3,0.8-0.6,1.2-0.7c0.1-0.1,0.3-0.2,0.4-0.2
	c-0.3-0.5-1.1-1.3-2.7-2.1c2,0.5,2.9,1.4,3.2,1.9c0,0,0,0,0.1,0l0,0l0,0l0,0l0,0l0,0l0,0c0.1-0.1,0.2-0.2,0.3-0.4
	c-0.4-0.5-1.1-1.3-2.3-2.2c1.5,0.4,2.3,1.2,2.8,1.8c1.5-1.3,3.3-2,5.2-2c0.9,0,1.7,0.1,2.3,0.3c0.5-0.7,1.2-1.7,0.9-2.3
	c-0.2-0.4-0.5-0.6-0.9-0.5c-0.3,0-0.7,0.1-1.1,0.3c-0.3,0.2-0.7,0.4-1,0.7c-0.3,0.3-0.4,0.5-0.3,0.7c0,0.1,0.1,0.2,0.1,0.2
	c0.1,0.1,0.2,0.1,0.3,0.1c0.9,0.2,0.5-1,0.2-0.5c0,0.1-0.1,0.1-0.2,0.1c-0.8-0.2,1.4-0.8,0.7,0.3c-0.2,0.3-0.5,0.4-0.7,0.3
	c-0.1,0-0.2-0.1-0.3-0.2c-0.1-0.1-0.2-0.2-0.2-0.3c-0.1-0.3,0-0.6,0.4-0.9l0,0c0.3-0.3,0.6-0.5,1-0.7s0.8-0.3,1.2-0.3
	c0.4,0,0.7,0.1,0.9,0.3l0,0c0.1,0.1,0.1,0.2,0.2,0.3c0.3,0.6-0.4,1.8-0.9,2.5C365.5,291.3,365.9,291.5,366.3,291.7L366.3,291.7z
	 M366.1,292.2L366.1,292.2c-0.2,0.3-0.3,0.5-0.6,0.6c0,0.1,0.1,0.1,0.1,0.2c0.2,0.1,0.5,0.2,0.7,0.4c0.1,0.1,0.2,0.1,0.3,0.2
	l0.4-0.4C366.8,293,366.6,292.6,366.1,292.2L366.1,292.2z M364,292.9c-0.3,0-0.6-0.1-0.9-0.2c0.1,0.1,0.2,0.2,0.3,0.3
	C363.5,293,363.8,292.9,364,292.9L364,292.9z M365.2,308.6L365.2,308.6L365.2,308.6L365.2,308.6L365.2,308.6z M365.5,308.6h0.1
	c0,0-0.1-0.1-0.1-0.2C365.4,308.4,365.4,308.5,365.5,308.6C365.4,308.5,365.4,308.5,365.5,308.6L365.5,308.6z M365.7,308.5
	L365.7,308.5c0-0.1-0.1-0.2-0.1-0.2l0,0C365.7,308.4,365.7,308.5,365.7,308.5L365.7,308.5z M366,308.5c0.2-0.1,0.4-0.1,0.6-0.3
	c0.1-0.1,0.2-0.2,0.3-0.2c0.1-0.1,0.2-0.3,0.3-0.4c-0.1,0-0.2,0.1-0.3,0.1h-0.1l0,0c-0.3,0.2-0.6,0.4-1,0.5
	C365.8,308.3,365.9,308.4,366,308.5L366,308.5z M365.8,308.9L365.8,308.9L365.8,308.9L365.8,308.9L365.8,308.9L365.8,308.9z
	 M365.5,309c-0.5,0-1,0-1.3-0.1c-0.4,0-0.7,0-1.1-0.1c-0.3,0.1-0.7,0.2-1,0.2c0.5,0.5,1.6,1.4,3.2,0.3c0.1-0.1,0.2-0.1,0.3-0.2
	C365.6,309.1,365.6,309,365.5,309L365.5,309z M352.5,304.7C352.6,304.6,352.6,304.6,352.5,304.7c0.1-0.2,0.2-0.3,0.2-0.4
	c-0.1-0.4-0.2-0.7-0.3-1.1c-0.1-0.3-0.1-0.6-0.1-0.9c-0.1,0.6-0.2,1.5,0.1,2.2C352.5,304.5,352.5,304.6,352.5,304.7L352.5,304.7z
	 M352.9,304.8c0,0.1,0,0.3,0,0.4c0.1,0.1,0.2,0.3,0.4,0.4c-0.1-0.1-0.1-0.3-0.2-0.4l0,0c0,0,0-0.1,0-0.2
	C353,304.9,353,304.8,352.9,304.8L352.9,304.8z M358,295.2l0.1,0.1c0.2,0.1,0.4-0.1,0.4-0.1s0,0.3-0.2,0.3c-0.1,0-0.2,0-0.3,0
	c0,0.1,0,0.2,0,0.2c0.2,0,0.4,0,0.6,0c0-0.2,0.1-0.4,0.1-0.7c-0.2-0.1-0.4-0.2-0.6-0.3C358.1,294.9,358,295,358,295.2L358,295.2z
	 M356.6,295.5c0,0-0.1-0.4-0.1-1.1l0,0c-0.5,0.6-0.6,1.4-0.6,1.9c0,0,0.1-0.1,0.2-0.1c0.3-0.1,0.6-0.3,0.9-0.3
	c-0.1-0.3-0.2-0.8-0.1-1.4c0,0.1-0.1,0.2-0.1,0.2C356.6,295,356.6,295.5,356.6,295.5L356.6,295.5z M358.1,294
	c0.1-0.1,0.3-0.3,0.4-0.5c-0.4,0-0.7,0.1-1,0.2c0.1,0,0.1,0,0.2,0.1C357.9,293.9,358,293.9,358.1,294L358.1,294z M358.8,293.8
	c-0.1,0.1-0.3,0.3-0.4,0.4c0.1,0.1,0.2,0.1,0.3,0.2C358.8,294.2,358.8,294,358.8,293.8L358.8,293.8L358.8,293.8z M365.1,293.3
	c-0.1,0-0.3,0-0.4,0c0.2,0.1,0.3,0.1,0.5,0.2C365.1,293.4,365.1,293.4,365.1,293.3L365.1,293.3z M364.9,294.9c0-0.2,0-0.5,0-0.7
	c-0.2,0-0.5-0.1-0.8-0.1c0.2,0.4,0.2,0.7,0.3,1C364.5,295.1,364.7,295,364.9,294.9L364.9,294.9z M366.3,307.8h-0.1l-0.1,0.1
	C366.2,307.9,366.2,307.8,366.3,307.8L366.3,307.8z M367.4,306.6c0.2-0.1,0.3-0.2,0.3-0.3c0.1-0.3,0.1-0.5,0.1-0.6h-0.1
	c-0.1,0.2-0.2,0.4-0.4,0.7C367.4,306.4,367.4,306.5,367.4,306.6L367.4,306.6z M362.6,310.5c0,0.1-0.1,0.3-0.1,0.5
	c0.1,0.1,0.2,0.1,0.3,0.2c0.1-0.3,0.1-0.5,0.1-0.7C362.8,310.5,362.7,310.5,362.6,310.5L362.6,310.5z M362.3,311.2
	c-0.1,0.2-0.2,0.4-0.3,0.5c0.3,0,0.5-0.2,0.6-0.4C362.5,311.4,362.4,311.3,362.3,311.2L362.3,311.2z M360.2,311.1
	c-0.1-0.1-0.1-0.2-0.2-0.3c-0.2,0-0.4,0-0.6-0.1l-0.2,0.2c0,0.6,0,1.2,0,1.7C359.5,312.2,359.9,311.6,360.2,311.1L360.2,311.1z
	 M359.9,310.5c0-0.1,0-0.1-0.1-0.2h-0.1l-0.1,0.1C359.7,310.4,359.8,310.4,359.9,310.5L359.9,310.5z M357.8,309.6
	c-0.1,0.1-0.2,0.2-0.3,0.2l0,0C357.7,309.7,357.7,309.7,357.8,309.6L357.8,309.6z M356.8,309.3c0.2,0,0.3-0.1,0.5-0.3
	c0.1-0.1,0.1-0.2,0.2-0.2c-0.4-0.2-0.7-0.4-1.1-0.6c-0.1,0.2-0.3,0.3-0.4,0.5C356.3,308.9,356.6,309.1,356.8,309.3L356.8,309.3z
	 M355.5,309.3L355.5,309.3c-0.2,0.3-0.4,0.5-0.5,0.6c0.3,0.1,0.7,0.2,1.1,0.3c0.5,0,0.9,0,1.2-0.2c0,0-0.1,0-0.1-0.1l0,0
	C356.4,309.8,356.1,309.7,355.5,309.3L355.5,309.3z M351.8,303.5c0-0.6,0.1-1.2,0.2-1.6c-0.2,0.3-0.2,0.9-0.2,1.4
	C351.8,303.4,351.8,303.4,351.8,303.5L351.8,303.5z M361.4,292.6c-0.7-0.1-1.3,0.3-1.7,0.5c0.1,0,0.1,0,0.2,0.1
	c0.3,0.1,0.5,0.3,0.7,0.5c0.5-0.3,1-0.5,1.6-0.6C361.9,292.9,361.7,292.7,361.4,292.6L361.4,292.6z M359.4,292.9
	c0.3-0.2,0.6-0.4,1-0.5c-0.3-0.1-0.7-0.1-1.1-0.1C359.3,292.4,359.4,292.6,359.4,292.9L359.4,292.9z M371.2,297.5
	c-0.1,0-0.3,0-0.5,0.2c0.1,0.2,0.3,0.5,0.3,0.8c0.2-0.2,0.3-0.4,0.5-0.5C371.4,297.8,371.3,297.6,371.2,297.5L371.2,297.5z
	 M370.3,298.1c-0.2,0.5-0.4,1.1-0.4,1.5c0,0.1,0,0.1,0,0.2s0,0.1,0,0.2c0.2-0.3,0.4-0.6,0.7-0.9
	C370.5,298.7,370.4,298.4,370.3,298.1L370.3,298.1z M369.7,298.5c0.1-0.3,0.2-0.6,0.3-0.8c-0.5-0.8-1.5-1.3-2.3-1.7
	c0,0.1,0.1,0.2,0.1,0.3C368.5,296.7,369.4,297.4,369.7,298.5L369.7,298.5z M370.5,297.3c0.1-0.1,0.3-0.2,0.4-0.2c-1-1-2.4-1.7-3.3-2
	c0,0.1,0,0.2-0.1,0.2C368.5,295.7,369.7,296.3,370.5,297.3L370.5,297.3z M372.1,301.4c0.3-0.1,0.7-0.3,1-0.8l0,0
	c0.2-0.6,0.3-1.3,0.2-1.8c-0.2,0.2-0.3,0.5-0.6,0.7l-0.1,0.2C372.7,300.4,372.4,301,372.1,301.4L372.1,301.4z M372.6,301.5
	c-0.4,0.2-0.7,0.3-1,0.3c-0.4,0.3-1,0.5-1.5,0.6l0,0c0,0,0,0.1,0.1,0.1c0.4,0.1,1,0.1,1.7-0.2C372.1,302.1,372.3,301.8,372.6,301.5
	C372.5,301.5,372.6,301.5,372.6,301.5L372.6,301.5z M369,303.6c0.3-0.1,0.5-0.3,0.7-0.8c0-0.1-0.1-0.3-0.2-0.4c0,0-0.1,0-0.1,0.1
	C369.3,303,369.1,303.3,369,303.6L369,303.6z M369.7,301.5c0-0.1-0.1-0.3-0.1-0.4c-0.1,0.2-0.1,0.3-0.2,0.4l0.1,0.1
	C369.6,301.6,369.7,301.5,369.7,301.5L369.7,301.5z M369.8,300.7c0.1,0.1,0.1,0.3,0.1,0.4c0.1-0.2,0.2-0.3,0.3-0.5
	C370.1,300.7,370,300.7,369.8,300.7L369.8,300.7z M369.7,303.4c-0.3,0.4-0.7,0.6-1,0.6v0.1c0.3,0,0.6,0,0.9,0l0,0
	C369.8,303.8,369.8,303.6,369.7,303.4L369.7,303.4z M371.1,302.7c-0.3,0-0.6,0-0.9,0c0,0.1,0.1,0.1,0.1,0.2
	C370.5,302.8,370.8,302.8,371.1,302.7L371.1,302.7z M366,309.4c0,0.1,0.1,0.1,0,0.1c0,0.1,0,0.1-0.1,0c0,0-0.1,0-0.1-0.1
	c-0.1,0.1-0.2,0.1-0.3,0.2c-0.7,0.4-1.4,0.7-2,0.7c0.2,0.3,0.5,0.8,0.7,1.6c0.3,0.1,0.6,0.1,0.8,0.1c0.9,0,1.8-0.1,1.8-1.1
	c0-0.3-0.1-0.6-0.1-0.8c-0.1-0.3-0.3-0.7-0.5-1C366.2,309.2,366.1,309.3,366,309.4L366,309.4z M363.3,310.4c0,0-0.1,0-0.2,0
	c0,0.2,0,0.6-0.1,0.9c0.3,0.2,0.7,0.4,1,0.5C363.8,311.1,363.5,310.7,363.3,310.4L363.3,310.4z M359.3,310.3L359.3,310.3
	L359.3,310.3L359.3,310.3L359.3,310.3L359.3,310.3z M360.3,309.4c0.2,0.1,0.4,0.2,0.6,0.2s0.3-0.1,0.4-0.2l0.2-0.3
	c-0.4,0.1-0.7,0.1-0.9,0.2C360.5,309.3,360.4,309.3,360.3,309.4L360.3,309.4L360.3,309.4z M357.1,307.4c0.1,0.2,0.3,0.4,0.6,0.5
	c0.2-0.2,0.4-0.4,0.5-0.8l-0.4-0.5C357.6,306.9,357.4,307.1,357.1,307.4L357.1,307.4z M358.3,308.2c0.2,0,0.5,0,0.7-0.2
	c0-0.4,0-0.7,0-1l-0.1,0.1C358.7,307.7,358.5,308,358.3,308.2L358.3,308.2z M359.2,307.9c0.2-0.2,0.3-0.3,0.4-0.4l-0.3-0.5l0,0
	L359.2,307.9L359.2,307.9z M359.7,308.5c0.1,0,0.5,0.1,0.8,0.1c0.2-0.2,0.3-0.4,0.4-0.6c-0.2-0.1-0.4-0.2-0.7-0.3
	c-0.1,0.2-0.2,0.3-0.4,0.5C359.9,308.3,359.8,308.4,359.7,308.5L359.7,308.5z M360.8,308.7c0.2,0,0.3,0,0.4,0h0.1
	c0.1,0,0.2-0.1,0.3-0.1c0.1,0,0.2-0.1,0.3-0.2v-0.1c-0.1-0.1-0.2-0.1-0.2-0.1c-0.1,0-0.3-0.1-0.6-0.2
	C361.1,308.3,360.9,308.5,360.8,308.7L360.8,308.7z M357.5,296.9l0.1,0.9l-0.2,0.2c-0.1,0-0.3-0.1-0.4-0.1c-0.2,0-0.3-0.1-0.5-0.1
	c0.2-0.2,0.4-0.4,0.6-0.6C357.3,297,357.4,297,357.5,296.9L357.5,296.9z M361.4,295c0.3,0,0.8-0.1,1.4-0.1c0.2,0,0.4,0,0.5,0
	c-0.1-0.2-0.2-0.5-0.4-0.8c-0.8,0.1-1.4,0.2-1.8,0.4C361.3,294.7,361.4,294.9,361.4,295L361.4,295z M363.5,295.1c-0.2,0-0.4,0-0.6,0
	c-0.3,0-0.6,0-0.9,0.1c0.6,0,1.2,0.2,1.6,0.2C363.5,295.2,363.5,295.2,363.5,295.1L363.5,295.1z M352.8,301.8c0.1,0.1,0,0.3-0.1,0.4
	c0,0.3,0.1,0.6,0.1,0.9c0.1,0.4,0.2,0.7,0.3,1c0.1-0.4,0.2-0.7,0.6-1.1c-0.2-0.3-0.3-0.8-0.5-1.2
	C352.7,301.7,352.8,301.8,352.8,301.8L352.8,301.8z M352.7,301.3c0.1,0,0.2,0,0.3,0c0-0.1,0-0.1,0-0.2
	C352.9,301.1,352.8,301.2,352.7,301.3L352.7,301.3L352.7,301.3z M353.7,301.3c0.2,0,0.4,0.1,0.6,0.1c-0.1-0.5-0.1-1,0-1.4
	c0.1-0.5,0.4-0.9,0.7-1.2c0-0.1-0.1-0.2-0.1-0.3C354.4,299.1,353.7,299.9,353.7,301.3L353.7,301.3z M354.8,301.5
	c0.1,0,0.2,0.1,0.2,0.1c0-0.4,0-0.9,0.3-1.4c0.1-0.1,0.2-0.3,0.2-0.4s0-0.4,0-0.8c0,0-0.1,0-0.1,0.1c-0.4,0.2-0.7,0.6-0.8,1.1
	C354.7,300.5,354.7,301,354.8,301.5L354.8,301.5z M355.1,302.3H355H355.1L355.1,302.3L355.1,302.3z M354.5,302.1
	c-0.1,0-0.1,0-0.2-0.1c-0.2-0.1-0.4-0.1-0.6-0.1c0,0.1,0,0.2,0,0.3c0.1,0.2,0.1,0.4,0.2,0.5c0.2-0.1,0.4-0.2,0.6-0.3
	C354.6,302.3,354.6,302.2,354.5,302.1L354.5,302.1z M357.9,310.3L357.9,310.3L357.9,310.3L357.9,310.3L357.9,310.3z M373.8,297.6
	l-0.1,0.1c-0.1,0.1-0.2,0.2-0.2,0.4v0.1C373.6,298,373.7,297.8,373.8,297.6L373.8,297.6z M373.3,298.4c-0.1,0.2-0.2,0.4-0.3,0.5
	c0.1-0.1,0.2-0.3,0.3-0.4V298.4L373.3,298.4z M372.6,299.3c0.2-0.4,0.4-0.8,0.6-1.2c0-0.2,0-0.3-0.1-0.3l0,0l0,0l0,0
	c-0.1-0.7-0.6-0.6-1.1-0.1C372.4,298.2,372.6,298.7,372.6,299.3L372.6,299.3z M354.6,306.2c0.2-0.3,0.5-0.6,0.9-0.8
	c-0.3-0.3-0.7-0.7-1.1-1.1c-0.4,0.4-0.5,0.9-0.4,1.3C354,305.7,354.3,306,354.6,306.2L354.6,306.2z M355.6,305.6
	c-0.4,0.2-0.6,0.5-0.8,0.8c0.3,0.2,0.5,0.3,0.6,0.3l0.1-0.1l0,0c0-0.1,0-0.2,0-0.4C355.5,306,355.5,305.7,355.6,305.6L355.6,305.6z
	 M359.4,293.7c0,0.1,0,0.1,0,0.2c0,0.3,0,0.6-0.1,0.9c0.2-0.2,0.5-0.5,0.7-0.7c-0.1-0.1-0.3-0.2-0.5-0.3
	C359.5,293.8,359.5,293.7,359.4,293.7L359.4,293.7z M359.3,295.5c0,0.2-0.1,0.4-0.1,0.6c0.1-0.1,0.2-0.3,0.3-0.4L359.3,295.5
	L359.3,295.5z M358.8,292.9c0-0.2-0.1-0.4-0.1-0.6c-0.3,0.2-0.6,0.4-0.9,0.7C358.1,292.9,358.4,292.9,358.8,292.9L358.8,292.9z
	 M370.2,295.7c0.3-0.2,0.9-0.6,1.4-1.1c-0.1,0-0.3-0.1-0.5,0c-0.2,0-0.4,0.1-0.7,0.2c-0.2,0.2-0.3,0.4-0.5,0.8
	C370,295.6,370.1,295.6,370.2,295.7L370.2,295.7z M369.7,295.4c0.1-0.2,0.2-0.4,0.4-0.6c-0.3,0.1-0.5,0.2-0.7,0.4
	C369.5,295.3,369.6,295.3,369.7,295.4L369.7,295.4z M372,300.1c-0.3,0.2-0.6,0.4-1,0.5c-0.1,0.4-0.4,0.8-0.6,1.1
	C371.2,301.4,371.9,300.9,372,300.1L372,300.1z M369.1,300.7c-0.1,0-0.2,0-0.3,0c0.1,0.1,0.2,0.2,0.2,0.3
	C369.1,300.9,369.1,300.8,369.1,300.7L369.1,300.7z M368.6,300.5c0.2,0,0.4,0,0.6,0.1c0.1-0.2,0.1-0.5,0.1-0.8
	c0.1-1.2-0.5-2-1.1-2.5c0.1,0.4,0.1,0.7,0.1,1c0,0.4,0.1,0.8,0.1,1.2c0,0.3,0,0.6,0,0.8C368.4,300.4,368.5,300.5,368.6,300.5
	L368.6,300.5z M369.8,300.6c0.2,0,0.3,0,0.5-0.1c0.1-0.3,0.2-0.7,0.2-1C370.2,299.9,370,300.3,369.8,300.6L369.8,300.6z M371,300.4
	c0.4-0.1,0.7-0.3,1-0.5c0-0.1,0-0.1,0-0.2c0-0.6-0.2-1.1-0.4-1.6c-0.2,0.2-0.3,0.4-0.5,0.6c0,0.1,0,0.2,0,0.3
	C371.2,299.5,371.2,300,371,300.4L371,300.4z M368.1,299.2c-0.1,0.4-0.3,0.6-0.4,0.8c0.1,0,0.3,0.1,0.4,0.2c0-0.2,0-0.5,0-0.7
	C368.1,299.4,368.1,299.3,368.1,299.2L368.1,299.2z M367.3,299.2c0,0,0,0.1,0.1,0.1v0.1c0.1-0.2,0.2-0.5,0.1-1.2
	c-0.2-0.9-0.6-0.2-0.6-0.2C367,298.3,367.2,298.8,367.3,299.2L367.3,299.2z M367.7,300.4c0.1,0.6,0,1.1,0,1.4c0.1,0,0.2,0,0.3,0
	c0-0.3,0.1-0.7,0.1-1.2C367.9,300.6,367.8,300.5,367.7,300.4L367.7,300.4z M356.4,297.2c0.2-0.2,0.3-0.3,0.6-0.5
	c0.3-0.2,0.6-0.3,0.9-0.4c-0.1,0-0.2,0-0.4,0.1l0,0l0,0c-0.3,0.1-0.7,0.2-1,0.4c-0.1,0.1-0.2,0.1-0.3,0.2
	C356.2,297,356.3,297.2,356.4,297.2L356.4,297.2z M355.7,300.4c-0.3,0.5-0.3,0.9-0.3,1.2c0.1-0.3,0.2-0.7,0.5-1.2
	c0.2-0.4,0.5-0.7,0.7-0.9C356.3,299.7,355.9,299.9,355.7,300.4L355.7,300.4z M353.8,303.4c-0.6,0.7-0.4,1.6-0.4,1.6l0,0
	c0.1,0.1,0.1,0.2,0.2,0.4c0-0.5,0.1-1,0.6-1.5C354,303.8,353.9,303.6,353.8,303.4L353.8,303.4z M354.5,295.9
	c-0.1-0.1-0.2-0.2-0.3-0.4c-0.5,0.5-0.7,1.2-0.9,1.8c0.6,0,1.1,0.1,1.4,0.2c0-0.1,0.1-0.2,0.1-0.3
	C354.7,297,354.5,296.5,354.5,295.9L354.5,295.9z M364.4,291.6L364.4,291.6c0-0.1-0.1-0.1-0.2-0.2
	C364.2,291.5,364.3,291.5,364.4,291.6L364.4,291.6z M368.3,300.8c0,0.4-0.1,0.8-0.1,1.1c0.1,0,0.2,0,0.4,0c0.1-0.1,0.2-0.3,0.3-0.4
	C368.7,301.2,368.5,301,368.3,300.8L368.3,300.8z M368.1,304.1L368.1,304.1L368.1,304.1c0-0.4,0-0.6-0.1-0.8l0,0
	c-0.1,0.1-0.2,0.2-0.3,0.2c0,0.1,0,0.2,0,0.3c0,0.1,0,0.1,0,0.2C367.8,304.1,368,304.1,368.1,304.1L368.1,304.1z M369.6,304.5
	c-0.3,0-0.6,0-0.8,0c0,0.2-0.1,0.5-0.1,0.7c0.2,0,0.3,0.1,0.5,0.1C369.3,305.1,369.5,304.8,369.6,304.5L369.6,304.5z M368.6,303.4
	c0.1-0.2,0.2-0.3,0.2-0.5c-0.1,0.1-0.2,0.1-0.3,0.2C368.6,303.2,368.6,303.3,368.6,303.4L368.6,303.4z M368.3,305.8
	c-0.1,0.1-0.1,0.1-0.1,0.1l-0.2-0.2h-0.1l0.2,0.4c0.1,0,0.2-0.1,0.4-0.2L368.3,305.8L368.3,305.8z M355.8,307.1L355.8,307.1
	c0.3,0.2,0.6,0.2,0.6,0.2s-0.2-0.2-0.3-0.3c-0.1-0.1-0.3-0.5-0.3-0.5S355.7,306.9,355.8,307.1L355.8,307.1z M358.9,309.2
	c-0.2,0-0.3-0.1-0.5-0.1c-0.1,0.2-0.2,0.6-0.5,0.8c0.1,0,0.2,0.1,0.3,0.1C358.4,309.8,358.6,309.5,358.9,309.2L358.9,309.2z
	 M352.7,308.5c0-0.1,0-0.1,0.1-0.1s0.1,0,0.1,0.1c0,0,0.2,2.5,1.6,1.6c-1.1-0.6-1.5-1.6-1.5-1.6c0-0.1,0-0.2,0.1-0.2s0.2,0,0.2,0.1
	c0,0,0.4,1,1.5,1.5c0.2-0.1,0.3-0.3,0.5-0.6l0.1-0.1c-0.3-0.2-0.5-0.4-0.8-0.6c-0.6-0.6-1-1.3-1.3-1.8c-0.6,0.4-1.1,1.1-1,2.3l0,0
	c0.1,0.6,0.3,1.1,0.6,1.4c0.3,0.3,0.6,0.5,1,0.5c0.3,0.1,0.7,0,1-0.1c0.2-0.1,0.4-0.2,0.6-0.4c-0.3-0.1-0.5-0.2-0.8-0.3
	C353,311.6,352.7,308.5,352.7,308.5L352.7,308.5z M355.6,308.9l0.1-0.1c-0.6-0.5-1.3-1.2-1.8-2.2l-0.1-0.1c0,0-0.1,0-0.1,0.1
	c0.2,0.5,0.6,1.2,1.2,1.7C355,308.6,355.3,308.8,355.6,308.9L355.6,308.9z M355.9,308.5l0.3-0.4l-0.6,0.2
	C355.7,308.4,355.8,308.5,355.9,308.5L355.9,308.5z M356.9,307.2c0.2-0.3,0.4-0.6,0.6-0.8c-0.2-0.1-0.6-0.3-0.9,0
	C356.3,306.6,356.7,307,356.9,307.2L356.9,307.2z M355.8,308.9L355.8,308.9c0.1,0.2,0.3,0.3,0.4,0.4
	C356.1,309.2,356,309.1,355.8,308.9L355.8,308.9z M359,309.4c-0.2,0.3-0.4,0.5-0.6,0.7c0.2,0.1,0.4,0.1,0.6,0.2
	C359,310,359,309.7,359,309.4L359,309.4z M355.1,296.9c0.1-0.1,0.2-0.2,0.3-0.3c-0.1-0.4-0.1-1.3,0.3-2.2c-0.1,0-0.2,0.1-0.3,0.1
	C354.6,295.3,354.9,296.4,355.1,296.9L355.1,296.9z M357.3,295.8c0.1,0,0.3,0,0.4-0.1c-0.1-0.3-0.1-0.7,0.1-1.1
	c-0.2-0.1-0.4-0.1-0.6-0.1C357,295.1,357.1,295.5,357.3,295.8L357.3,295.8z M354.5,297.9c-0.3-0.1-0.8-0.2-1.3-0.2
	c0,0.3-0.1,0.5-0.1,0.8c0,0.2,0,0.5,0,0.7C353.6,298.5,354.2,298.1,354.5,297.9L354.5,297.9z M351,299.6c0,0.1,0.1,0.2,0.1,0.3
	c0,0.1,0.1,0.2,0.2,0.3c0.2,0.2,0.3,0.3,0.5,0.3l0,0c0.1,0,0.1,0,0.1,0s0.1,0,0.1-0.1s0-0.1,0-0.3c-0.1-0.2-0.4-0.4-0.8-0.5
	C351.1,299.7,351.1,299.7,351,299.6L351,299.6z M350.8,300.1c-0.1-0.1-0.1-0.3-0.1-0.5c-0.1,0-0.2,0-0.3,0.1l0,0l-0.1,0.1
	C350.3,300.1,350.6,300.2,350.8,300.1C350.8,300.2,350.8,300.1,350.8,300.1L350.8,300.1z M360.9,294c0.1,0.1,0.1,0.2,0.2,0.2
	c0.4-0.2,1-0.4,1.8-0.5c-0.1-0.1-0.2-0.2-0.2-0.3c-0.1,0-0.1,0-0.2,0C361.8,293.6,361.3,293.7,360.9,294L360.9,294z M360.8,295.2
	c0-0.1-0.1-0.2-0.1-0.3c-0.2,0.1-0.3,0.2-0.4,0.3C360.5,295.2,360.6,295.2,360.8,295.2L360.8,295.2z M363.9,293.7c0.2,0,0.5,0,0.7,0
	c-0.2-0.1-0.5-0.1-0.8-0.2C363.8,293.6,363.9,293.6,363.9,293.7L363.9,293.7z M372.9,306.4c-0.1,0.1-0.2,0.3-0.4,0.3
	c-0.2,0-0.3-0.2-0.4-0.3C372.4,306.4,372.7,306.4,372.9,306.4L372.9,306.4z M352.8,300.5c0,0.1,0,0.2-0.1,0.2l0.1-0.1
	C352.9,300.7,352.8,300.6,352.8,300.5L352.8,300.5z M351.6,304c-0.1-0.2-0.1-0.5-0.1-0.7s0-0.5,0-0.7c-0.1,0.3-0.1,0.6-0.1,0.9
	C351.5,303.7,351.5,303.9,351.6,304L351.6,304z M367.1,303.2c0.1-0.1,0.2-0.1,0.3-0.2v-0.1c0-0.3-0.3-0.4-0.3-0.4
	S367.1,302.9,367.1,303.2C367,303.2,367,303.2,367.1,303.2L367.1,303.2z M357.1,304.7c0.3,0,0.7-0.1,0.7-0.1s-0.1,0.2-0.3,0.3
	C357.4,304.9,357.1,304.7,357.1,304.7L357.1,304.7z M364.9,306.6c0,0,0.5,0.2,0.8-0.3c0.4-0.4,0.2-1,0.2-1s-0.1,0.4-0.5,0.8
	C365.1,306.5,364.9,306.6,364.9,306.6L364.9,306.6z M364.8,305.8c0,0,0.2,0.1,0.5-0.1s0.1-0.5,0.1-0.5L364.8,305.8L364.8,305.8z
	 M366,306.8c0,0,0.4-0.1,0.5-0.5s0.1-0.6,0.1-0.6s0.3,0.5,0.1,0.8C366.5,306.8,366,306.8,366,306.8L366,306.8z M366.4,299.8
	c0,0,0.1,0.3,0.2,0.3c0.2,0,0.2,0,0.2,0s0.1,0.4-0.2,0.3C366.4,300.3,366.4,299.8,366.4,299.8L366.4,299.8z M366.2,298.9
	c0.3,0.3,0.6,0.8,0.6,0.8s-0.3-0.1-0.5-0.2C366.1,299.3,366.2,298.9,366.2,298.9L366.2,298.9z M366.4,297.7l-0.7-0.9
	c0,0,0.5-0.1,0.7,0.2C366.6,297.2,366.4,297.7,366.4,297.7L366.4,297.7z M365.2,297.6c0,0,0.1-0.5-0.4-1s-0.9,0-0.9,0
	s0.6,0.2,0.8,0.4C364.9,297.3,365.2,297.6,365.2,297.6L365.2,297.6z M356.7,301.3c0-0.1,0.3-0.4,0.3-0.4s-0.3,0-0.3,0.1
	C356.6,301.2,356.7,301.3,356.7,301.3L356.7,301.3z M355.7,304c0,0,0.2,0.1,0.5,0.2c0.2,0,0.4,0,0.4,0s-0.5,0.3-0.8,0.1
	C355.6,304.2,355.7,304,355.7,304L355.7,304z M357,303.5c0,0-0.1,0.3-0.1,0.6c0,0.3,0.3,0.5,0.3,0.5S357,304.1,357,303.5L357,303.5z
	 M359.7,306.3c0,0,0.4,0.3,0.8,0.4c0.1,0,0.2,0,0.2,0.1l0,0l0,0l0,0l0,0l0,0l0,0l0,0l0,0l0,0l0,0l0,0l0,0l0,0l0,0l0,0l0,0l0,0l0,0
	l0,0l0,0l0,0l0,0l0,0l0,0l0,0l0,0l0,0l0,0l0,0l0,0l0,0l0,0l0,0l0,0l0,0l0,0l0,0l0,0l0,0l0,0l0,0l0,0l0,0l0,0l0,0l0,0l0,0l0,0l0,0
	l0,0l0,0l0,0l0,0l0,0l0,0l0,0l0,0l0,0l0,0l0,0l0,0l0,0l0,0l0,0l0,0l0,0l0,0l0,0l0,0l0,0l0,0l0,0l0,0l0,0l0,0l0,0l0,0l0,0
	c0.2,0,0.3,0,0.3,0s-0.2,0.1-0.4,0.2l0,0l0,0l0,0l0,0l0,0l0,0l0,0l0,0l0,0l0,0l0,0l0,0l0,0l0,0l0,0l0,0l0,0l0,0l0,0l0,0l0,0l0,0l0,0
	l0,0l0,0l0,0l0,0l0,0l0,0l0,0l0,0l0,0l0,0l0,0l0,0l0,0l0,0l0,0l0,0l0,0l0,0l0,0l0,0l0,0l0,0l0,0l0,0l0,0l0,0l0,0l0,0l0,0l0,0l0,0
	l0,0l0,0l0,0l0,0l0,0l0,0l0,0l0,0l0,0l0,0l0,0l0,0l0,0l0,0l0,0l0,0l0,0l0,0c-0.1,0-0.2,0-0.3,0C359.8,306.8,359.7,306.3,359.7,306.3
	L359.7,306.3z M362.9,307.9c0,0,0.1,0.2,0.3,0.3c0.2,0.1-0.1,0.1-0.2,0C362.7,308.1,362.9,307.9,362.9,307.9L362.9,307.9z
	 M363.2,307.5c0,0,0.7,0.2,1.2,0s0.6-0.5,0.6-0.5s-0.4,1.2-0.9,1.1C363.7,308.1,363.2,307.5,363.2,307.5L363.2,307.5z"/>
<circle id="Oval_45_" fill="none" stroke="#000000" stroke-width="2" cx="422" cy="302" r="22"/>
<path id="Shape_46_" d="M412.8,292.8h9.2v9.2h9.2v9.2H422V302h-9.2V292.8z M412,312h20v-20h-20V312z"/>
<circle id="Oval_46_" fill="none" stroke="#000000" stroke-width="2" cx="482" cy="302" r="22"/>
<path id="Shape_47_" d="M490.8,299.9h1.6v4.8h-1.6V299.9z M483,299.9h1.6v4.8H483V299.9z M471.6,299.9h1.6v4.8h-1.6V299.9z
	 M488.2,297.7v9.1h4.1v1.1h-4.1v2.1h6.8v-12.3L488.2,297.7L488.2,297.7z M480.4,297.7v9.1h4.2v1.1h-4.2v2.1h6.8v-12.3L480.4,297.7
	L480.4,297.7z M476.8,306.8h2.6v-9.1h-2.6V306.8z M476.8,296.7h2.6V294h-2.6V296.7z M473.2,294v3.7H469v9.1h6.8V294H473.2z"/>
<circle id="Oval_47_" fill="none" stroke="#000000" stroke-width="2" cx="542" cy="302" r="22"/>
<path id="Shape_48_" d="M538.1,307.8C538.1,307.8,538,307.8,538.1,307.8c-0.3,0.1-0.5,0.3-0.5,0.6c0,0.1,0.1,0.2,0.1,0.3
	c1.1,1.2,2.8,1.4,4.1,1.4c0,0,0,0,0.1,0l0,0l0,0c1.3,0,3-0.2,4.2-1.4c0.2-0.2,0.2-0.5,0-0.7c-0.1-0.1-0.3-0.2-0.4-0.2
	c-0.1,0-0.2,0.1-0.3,0.2c-0.8,0.8-2.2,1-3.4,1.1h0l0,0h-0.1c-1.2,0-2.6-0.2-3.4-1.1C538.4,307.9,538.2,307.8,538.1,307.8
	L538.1,307.8z M545.9,301.4c-1,0-1.8,0.8-1.8,1.9c0,1,0.8,1.9,1.8,1.9s1.8-0.9,1.8-1.9S546.9,301.4,545.9,301.4L545.9,301.4z
	 M538.1,301.4c-1,0-1.8,0.9-1.8,1.9s0.8,1.9,1.8,1.9s1.8-0.9,1.8-1.9C539.8,302.3,539,301.4,538.1,301.4L538.1,301.4z M552,299.2
	c1.1,0,2,0.9,2,2.1c0,0.7-0.3,1.3-0.8,1.6c-0.4-1.2-1.2-2.4-2.3-3.3C551.2,299.3,551.6,299.2,552,299.2L552,299.2z M531.9,299.2
	c0.4,0,0.8,0.1,1.1,0.4c-1.1,0.9-1.9,2-2.4,3.3c-0.4-0.4-0.7-0.9-0.7-1.6C530,300.1,530.8,299.2,531.9,299.2L531.9,299.2z
	 M541.9,297.7c3,0,5.7,0.8,7.6,2.2c1.9,1.3,3,3.1,3,5s-1.1,3.7-3,5s-4.6,2.2-7.6,2.2s-5.7-0.8-7.6-2.2c-1.9-1.3-3.1-3.1-3.1-5
	s1.1-3.6,3.1-5C536.2,298.5,538.9,297.7,541.9,297.7L541.9,297.7z M550.8,291.1c0.8,0,1.4,0.7,1.4,1.5s-0.6,1.5-1.4,1.5
	c-0.8,0-1.4-0.7-1.4-1.5C549.3,291.8,550,291.1,550.8,291.1L550.8,291.1z M550.8,290c-1,0-1.9,0.7-2.2,1.6l-4.5-1.1
	c-0.1,0-0.1,0-0.2,0c-0.2,0-0.4,0.2-0.4,0.4l-1.8,5.9c-3,0.1-5.7,0.9-7.7,2.3c-0.5-0.5-1.2-0.8-2-0.8c-1.6,0-3,1.4-3,3.1
	c0,1.1,0.6,2.1,1.4,2.7c0,0.3-0.1,0.6-0.1,0.9c0,2.3,1.4,4.4,3.5,5.8c2.1,1.5,5,2.3,8.1,2.3c3.2,0,6-0.9,8.1-2.3
	c2.1-1.5,3.5-3.5,3.5-5.8c0-0.3,0-0.6-0.1-0.9c0.9-0.5,1.5-1.5,1.5-2.7c0-1.7-1.3-3.1-3-3.1c-0.8,0-1.5,0.3-2,0.8
	c-1.9-1.3-4.5-2.2-7.4-2.3l1.5-5.1l4.1,1c0,1.4,1.1,2.5,2.4,2.5c1.3,0,2.4-1.2,2.4-2.6C553.2,291.2,552.1,290,550.8,290L550.8,290z"
	/>
<circle id="Oval_48_" fill="none" stroke="#000000" stroke-width="2" cx="602" cy="302" r="22"/>
<path id="Shape_49_" d="M609.9,301.5v3.4c0,0.7-0.6,1.2-1.3,1.2s-1.3-0.6-1.3-1.2v-3.3l-2.4,0.7l-1.6-0.8v3.3c0,2.9,2.4,5.2,5.4,5.2
	s5.4-2.4,5.4-5.3v-3.3L609.9,301.5L609.9,301.5z M603.3,298.7l1.6,0.8l2.4-0.7v-1.7c-0.1-2.8-2.4-5.1-5.4-5.1
	c-2.9,0-5.3,2.3-5.4,5.1v7.6c0,0.7-0.6,1.2-1.3,1.2s-1.3-0.6-1.3-1.2v-3.2H590v3.3c0,2.9,2.4,5.3,5.4,5.3c2.9,0,5.3-2.3,5.4-5.2
	v-7.5c0-0.7,0.6-1.2,1.3-1.2s1.3,0.6,1.3,1.2v1.3H603.3z"/>
<circle id="Oval_49_" fill="none" stroke="#000000" stroke-width="2" cx="62" cy="362" r="22"/>
<path id="Shape_50_" d="M71,366.1c-0.5,1.1-0.7,1.7-1.4,2.7c-0.9,1.4-2.1,3.2-3.7,3.2c-1.4,0-1.7-0.9-3.6-0.9s-2.2,0.9-3.6,0.9
	c-1.5,0-2.7-1.6-3.6-3c-2.5-3.9-2.7-8.6-1.2-11.1c1.1-1.8,2.8-2.8,4.4-2.8c1.6,0,2.7,0.9,4,0.9s2.1-0.9,4-0.9c1.4,0,2.9,0.8,4,2.2
	C66.9,359.4,67.4,364.7,71,366.1L71,366.1z M64.9,353.6c0.7-0.9,1.2-2.2,1-3.6c-1.1,0.1-2.4,0.8-3.2,1.8c-0.7,0.9-1.3,2.2-1,3.5
	C62.9,355.3,64.2,354.6,64.9,353.6L64.9,353.6z"/>
<circle id="Oval_50_" fill="none" stroke="#000000" stroke-width="2" cx="122" cy="362" r="22"/>
<path id="Shape_51_" d="M124.8,352.8l0.2-0.4l0.2-0.4l0.5-0.8c0.1-0.1,0-0.2-0.1-0.3c-0.1-0.1-0.2,0-0.3,0.1l-0.5,0.9l-0.2,0.4
	l-0.2,0.4c-0.7-0.3-1.6-0.5-2.4-0.5c-0.9,0-1.7,0.2-2.4,0.5l-0.2-0.4l-0.2-0.4l-0.5-0.9c-0.1-0.1-0.2-0.1-0.3-0.1
	c-0.1,0.1-0.1,0.2-0.1,0.3l0.5,0.8l0.2,0.4l0.2,0.4c-1.7,0.8-2.9,2.4-2.9,4.3h11.5C127.7,355.3,126.6,353.7,124.8,352.8L124.8,352.8
	z M119.5,355.4c-0.3,0-0.6-0.3-0.6-0.6c0-0.4,0.3-0.6,0.6-0.6c0.3,0,0.6,0.3,0.6,0.6C120.2,355.1,119.9,355.4,119.5,355.4
	L119.5,355.4z M124.5,355.4c-0.3,0-0.6-0.3-0.6-0.6c0-0.4,0.3-0.6,0.6-0.6c0.3,0,0.6,0.3,0.6,0.6S124.8,355.4,124.5,355.4z
	 M116.4,358L116.4,358l-0.1,9.4c0,0.7,0.6,1.3,1.3,1.3h0.9c0,0.1,0,0.2,0,0.4v2.7c0,0.7,0.5,1.3,1.2,1.3s1.2-0.6,1.2-1.3V369
	c0-0.1,0-0.2,0-0.4h2.3c0,0.1,0,0.2,0,0.4v2.7c0,0.7,0.5,1.3,1.2,1.3s1.2-0.6,1.2-1.3V369c0-0.1,0-0.2,0-0.4h0.9
	c0.7,0,1.3-0.6,1.3-1.3V358H116.4z M114.2,358c-0.7,0-1.2,0.6-1.2,1.3v5.5c0,0.7,0.6,1.3,1.2,1.3c0.7,0,1.2-0.6,1.2-1.3v-5.5
	C115.5,358.5,114.9,358,114.2,358z M129.8,358c-0.7,0-1.2,0.6-1.2,1.3v5.5c0,0.7,0.6,1.3,1.2,1.3s1.2-0.6,1.2-1.3v-5.5
	C131,358.5,130.4,358,129.8,358z"/>
<circle id="Oval_51_" fill="none" stroke="#000000" stroke-width="2" cx="182" cy="362" r="22"/>
<path id="Shape_52_" d="M186.8,362.4l-10.7,10.3l0,0l-0.3,0.3c0.5-0.3,9.4-5.3,9.4-5.3l4.5-2.5l-0.1-0.1L186.8,362.4z M190.3,359.1
	L190.3,359.1L190.3,359.1l-0.2,0.2l-1.3,1.3l-1.4,1.4l0,0l0,0l-0.1,0.1l2.8,2.8l0.1,0.1l0,0l0.1,0.1l4.3-2.4
	c0.5-0.3,0.5-0.6,0.2-0.9h-0.1l-0.1-0.1C194.2,361.3,190.8,359.3,190.3,359.1L190.3,359.1z M175.1,351.1c-0.1,0.1-0.1,0.2-0.1,0.4
	V362v10.6c0,0.1,0,0.2,0.1,0.3l0,0l0,0l0.1-0.2l11.2-10.8l-0.1-0.1l0,0l0,0l-11-10.6L175.1,351.1L175.1,351.1L175.1,351.1z
	 M175.9,351l0.2,0.2l0,0l0,0l10.7,10.3l1.1-1.1l1.6-1.6l0.1-0.1l-4.5-2.5L176,351C176,351,176,351,175.9,351
	C176,351,175.9,351,175.9,351L175.9,351z"/>
<circle id="Oval_52_" fill="none" stroke="#000000" stroke-width="2" cx="242" cy="362" r="22"/>
<path id="Shape_53_" d="M241.3,353.6v7.9h9.7V352L241.3,353.6z M241.3,370.4l9.7,1.6v-9.4h-9.7V370.4z M233,361.4h7.3v-7.7l-7.3,1.2
	V361.4z M233,369.1l7.3,1.2v-7.7H233V369.1z"/>
<circle id="Oval_53_" fill="none" stroke="#000000" stroke-width="2" cx="302" cy="362" r="22"/>
<path id="Shape_54_" d="M290.2,367.8c-0.2,0-0.3,0.3-0.1,0.5c3.1,3.6,7.3,5.7,11.9,5.7c3.3,0,7.1-1.3,9.7-3.8c0.4-0.4,0.1-1-0.4-0.8
	c-2.9,1.6-6.1,2.3-9.1,2.3c-4.3,0-8.5-1.5-11.9-4C290.3,367.8,290.3,367.8,290.2,367.8 M312.2,367.2c-0.8,0-1.8,0.3-2.6,0.9
	c-0.2,0.2-0.2,0.5,0.1,0.4c0.8-0.1,2.7-0.4,3.1,0.1c0.3,0.5-0.4,2.8-0.7,3.8c-0.1,0.3,0.1,0.4,0.3,0.2c1.4-1.5,1.8-4.6,1.5-5.1
	C313.8,367.4,313.1,367.2,312.2,367.2 M303.7,360.1v0.7c0,1.2,0,2.2-0.6,3.3c-0.5,0.9-1.2,1.4-2.1,1.4c-1.1,0-1.8-0.9-1.8-2.2
	C299.2,360.6,301.5,360.1,303.7,360.1 M302,351c-2.8,0-6,1.1-6.7,4.7c-0.1,0.4,0.2,0.6,0.4,0.6l2.9,0.3c0.3,0,0.5-0.3,0.5-0.6
	c0.2-1.2,1.3-1.8,2.4-1.8c0.6,0,1.3,0.2,1.7,0.8c0.4,0.6,0.4,1.5,0.4,2.2v0.4c-1.7,0.2-4,0.3-5.6,1.1c-1.9,0.8-3.2,2.5-3.2,5
	c0,3.2,2,4.8,4.5,4.8c2.1,0,3.3-0.5,4.9-2.2c0.5,0.8,0.7,1.2,1.7,2c0.2,0.1,0.5,0.1,0.7-0.1l0,0c0.6-0.5,1.7-1.5,2.3-2
	c0.2-0.2,0.2-0.5,0-0.8c-0.5-0.8-1.1-1.4-1.1-2.8v-4.8c0-2,0.1-3.9-1.3-5.3C305.4,351.4,303.5,351,302,351"/>
<circle id="Oval_54_" fill="none" stroke="#000000" stroke-width="2" cx="362" cy="362" r="22"/>
<path id="Shape_55_" d="M366.9,362.3c-0.3,0-0.6,0-0.9,0.1c0.1-0.7,0.4-1.5,1.3-1.4c1.1,0,1.2,1,1.2,1.7
	C368.1,362.5,367.5,362.3,366.9,362.3L366.9,362.3z M371.5,355.2c-0.2-1-0.7-1.4-1.3-1.6c-0.6-0.2-1.7-0.4-3.1-0.6
	c-1.1-0.1-2.5-0.1-3.3-0.1c-0.1-0.7-0.6-1.3-1.1-1.5c-1.4-0.6-3.5-0.4-4.1-0.3c-0.4,0.1-0.9,0.4-1.2,0.8c-0.2,0.3-0.3,0.6-0.3,1
	c0,0.3,0,0.9,0,1.4s0,1,0,1c0,0.5-0.4,0.9-0.9,0.9H354c-0.5,0-0.8,0.1-1.1,0.2c-0.3,0.1-0.5,0.3-0.6,0.5c-0.3,0.4-0.4,0.9-0.4,1.4
	c0,0,0,0.4,0.1,1.2c0.1,0.6,0.8,5,1.4,6.3c0.2,0.5,0.4,0.7,0.9,1c1.1,0.5,3.6,1,4.7,1.1c1.2,0.1,1.9,0.5,2.3-0.4
	c0,0,0.1-0.2,0.2-0.6c0.4-1.1,0.4-2.2,0.4-2.9c0-0.1,0.1-0.1,0.1,0c0,0.5-0.1,2.3,1.3,2.8c0.5,0.2,1.7,0.4,2.8,0.5
	c1,0.1,1.8,0.5,1.8,3.2c0,1.6-0.3,1.8-2.1,1.8c-1.4,0-2,0-2-1.1c0-0.9,0.9-0.8,1.6-0.8c0.3,0,0.1-0.2,0.1-0.8c0-0.6,0.4-0.9,0-0.9
	c-2.4-0.1-3.7,0-3.7,2.9c0,2.7,1,3.2,4.4,3.2c2.6,0,3.5-0.1,4.6-3.4c0.2-0.7,0.7-2.7,1-6.1C372.1,363.3,371.8,356.8,371.5,355.2
	L371.5,355.2z M354,355.6L354,355.6h2.2c0.1,0,0.2-0.1,0.2-0.2c0,0,0-1.9,0-2.5l0,0c0-0.4,0.1-0.8,0.3-1.1l0.1-0.1l0,0l-4.4,4.3l0,0
	c0.1,0,0.2-0.1,0.2-0.1C353,355.7,353.4,355.6,354,355.6L354,355.6z"/>
<circle id="Oval_55_" fill="none" stroke="#000000" stroke-width="2" cx="422" cy="362" r="22"/>
<path id="Shape_56_" d="M411,363.7l6.5,4.3l4.5-3.9l-6.5-4.1L411,363.7z M417.5,352l-6.5,4.3l4.5,3.7l6.5-4.1L417.5,352z M433,356.3
	l-6.5-4.3l-4.5,3.9l6.5,4.1L433,356.3z M422,364.1l4.5,3.9l6.5-4.3l-4.5-3.7L422,364.1z M422,365l-4.5,3.9l-1.9-1.3v1.5l6.5,4l6.5-4
	v-1.5l-1.9,1.3L422,365z"/>
<circle id="Oval_56_" fill="none" stroke="#000000" stroke-width="2" cx="482" cy="362" r="22"/>
<path id="Shape_57_" d="M478.7,366.2h-0.1l-0.1,0.1l-3,5.4l-0.2,0.3h14.4l0.1-0.1l3-5.4l0.2-0.3H478.7z M486.5,364.8l0.1,0.1h0.1h6
	h0.4l-0.2-0.3l-7-12.5l-0.1-0.1h-0.1h-6h-0.4l0.2,0.3L486.5,364.8z M481.5,358.5l-0.1-0.1l-3-5.4l-0.2-0.3L478,353l-7,12.5l-0.1,0.1
	l0.1,0.1l3,5.4l0.2,0.3l0.2-0.3l7-12.5L481.5,358.5z"/>
<circle id="Oval_57_" fill="none" stroke="#000000" stroke-width="2" cx="542" cy="362" r="22"/>
<path id="Shape_58_" d="M553,359l-7.6-1.1L542,351l-3.4,6.9L531,359l5.5,5.4l-1.3,7.6l6.8-3.6l6.8,3.6l-1.3-7.6L553,359"/>
<circle id="Oval_58_" fill="none" stroke="#000000" stroke-width="2" cx="602" cy="362" r="22"/>
<path id="Shape_59_" d="M602,351c-6.1,0-11,4.9-11,11s4.9,11,11,11s11-4.9,11-11S608.1,351,602,351L602,351z M602,371.6
	c-1.4,0-2.6-0.3-3.8-0.8l5-5.6c0.1-0.1,0.2-0.3,0.2-0.5v-2.1c0-0.4-0.3-0.7-0.7-0.7c-2.4,0-5-2.5-5-2.5c-0.1-0.1-0.3-0.2-0.5-0.2
	h-2.8c-0.4,0-0.7,0.3-0.7,0.7v4.1c0,0.3,0.1,0.5,0.4,0.6l2.4,1.2v4c-2.5-1.7-4.1-4.6-4.1-7.9c0-1.5,0.3-2.9,0.9-4.1h2.5
	c0.2,0,0.4-0.1,0.5-0.2l2.8-2.8c0.1-0.1,0.2-0.3,0.2-0.5v-1.7c0.9-0.3,1.8-0.4,2.8-0.4c1.5,0,2.9,0.3,4.2,1
	c-0.1,0.1-0.2,0.2-0.3,0.2c-0.8,0.8-1.2,1.8-1.2,2.9s0.4,2.1,1.2,2.9s1.8,1.2,2.9,1.2c0.1,0,0.1,0,0.2,0c0.3,1.1,0.8,4-0.2,8v0.1
	C607.1,370.5,604.7,371.6,602,371.6L602,371.6L602,371.6z"/>
</svg>
