<?xml version="1.0" encoding="UTF-8"?>
<svg id="up" width="50px" height="50px" viewBox="0 0 50 50" version="1.1" xmlns="http://www.w3.org/2000/svg" xmlns:xlink="http://www.w3.org/1999/xlink">
    <!-- Generator: Sketch 50.2 (55047) - http://www.bohemiancoding.com/sketch -->
    <title>up4</title>
    <desc>Created with Sketch.</desc>
    <defs></defs>
    <g id="Page-1" stroke="none" stroke-width="1" fill="none" fill-rule="evenodd">
        <g id="up4">
            <g id="upload" transform="translate(10.833333, 3.333333)" fill-rule="nonzero">
                <g id="Group" fill="#607D8B">
                    <path d="M1.10578411,12.8871015 L14.9824644,1.3243398 L28.8591446,12.8871015 C29.1180244,13.0954629 29.5306314,13.0894559 29.7807128,12.8737639 C30.0246843,12.6633153 30.0246843,12.3297232 29.7807128,12.1192746 L15.4426069,0.173133948 C15.1881263,-0.0388418708 14.7755804,-0.0388418708 14.5210387,0.173133948 L0.18293279,12.1192746 C-0.0671486762,12.3349666 -0.0599389002,12.6787401 0.198940937,12.8871015 C0.451527495,13.0903213 0.85191446,13.0903213 1.10443992,12.8871015 L1.10578411,12.8871015 Z" id="Shape"></path>
                </g>
                <path d="M29.3205703,13.0456761 C29.1475967,13.0459306 28.9815886,12.988915 28.8591446,12.8871015 L14.9824644,1.3243398 L1.10578411,12.8871015 C0.846904277,13.0954629 0.434297352,13.0894559 0.184215886,12.8737639 C-0.059694501,12.6633153 -0.059694501,12.3297232 0.184215886,12.1193255 L14.5223218,0.173133948 C14.7768024,-0.0388418708 15.1893483,-0.0388418708 15.44389,0.173133948 L29.7819959,12.1192746 C30.03611,12.3316577 30.0354379,12.675482 29.7805295,12.8872033 C29.658391,12.9886605 29.4929939,13.0456252 29.3205703,13.0456761 Z" id="Shape" fill="#FFFFFF"></path>
            </g>
            <g id="upload" transform="translate(10.833333, 14.166667)" fill-rule="nonzero">
                <g id="Group" fill="#607D8B">
                    <path d="M1.10578411,12.8871015 L14.9824644,1.3243398 L28.8591446,12.8871015 C29.1180244,13.0954629 29.5306314,13.0894559 29.7807128,12.8737639 C30.0246843,12.6633153 30.0246843,12.3297232 29.7807128,12.1192746 L15.4426069,0.173133948 C15.1881263,-0.0388418708 14.7755804,-0.0388418708 14.5210387,0.173133948 L0.18293279,12.1192746 C-0.0671486762,12.3349666 -0.0599389002,12.6787401 0.198940937,12.8871015 C0.451527495,13.0903213 0.85191446,13.0903213 1.10443992,12.8871015 L1.10578411,12.8871015 Z" id="Shape"></path>
                </g>
                <path d="M29.3205703,13.0456761 C29.1475967,13.0459306 28.9815886,12.988915 28.8591446,12.8871015 L14.9824644,1.3243398 C11.9689611,3.83534531 9.70883361,5.71859944 8.20208196,6.97410219 C6.62512688,8.28810204 4.25969427,10.2591018 1.10578411,12.8871015 C0.846904277,13.0954629 0.434297352,13.0894559 0.184215886,12.8737639 C-0.059694501,12.6633153 -0.059694501,12.3297232 0.184215886,12.1193255 C3.46922773,9.38232656 5.93298661,7.32957735 7.57549254,5.96107788 C9.11923237,4.67486811 11.4348421,2.74555347 14.5223218,0.173133948 C14.7768024,-0.0388418708 15.1893483,-0.0388418708 15.44389,0.173133948 L29.7819959,12.1192746 C30.03611,12.3316577 30.0354379,12.675482 29.7805295,12.8872033 C29.658391,12.9886605 29.4929939,13.0456252 29.3205703,13.0456761 Z" id="Shape" fill="#FFFFFF"></path>
            </g>
            <rect id="Rectangle-2" stroke="#FFFFFF" x="0.5" y="0.5" width="49" height="49" rx="8"></rect>
            <text id="Up" fill="#FFFFFF" font-family="Circe-Regular, Circe" font-size="15" font-weight="normal">
                <tspan x="15" y="43">Up</tspan>
            </text>
        </g>
    </g>
</svg>